<svg width="620" height="360" viewBox="0 0 620 360" fill="none" xmlns="http://www.w3.org/2000/svg">
						<g clip-path="url(#clip0_7511_88328)">
						<rect width="619.5" height="360" rx="16" fill="black" fill-opacity="0.03"/>
						<g clip-path="url(#clip1_7511_88328)">
						<path d="M290.669 281.355L288.176 276.674C300.096 252.081 299.787 220.388 284.7 192.156C269.616 163.914 243.446 146.035 216.38 142.259L213.879 137.576C211.18 132.523 204.87 130.607 199.817 133.306L183.475 142.035C178.422 144.734 176.506 151.043 179.205 156.096L179.86 157.324L112.034 193.553C106.296 196.617 103.672 203.249 105.408 209.256L-76.7005 329.075C-81.0701 332.072 -83.1583 337.21 -82.4316 342.192L-141.457 373.719C-142.945 374.515 -143.505 376.357 -142.71 377.845C-141.915 379.334 -140.072 379.893 -138.584 379.098L-80.2649 347.948L-47.4955 409.299L-117.952 446.932L-153.879 379.67C-154.79 377.964 -156.312 376.71 -158.162 376.148C-160.013 375.586 -161.975 375.782 -163.681 376.693L-178.644 384.686C-180.35 385.597 -181.604 387.119 -182.166 388.969C-182.728 390.819 -182.531 392.782 -181.62 394.488L-142.774 467.215C-141.834 468.975 -140.263 470.19 -138.488 470.729C-136.713 471.268 -134.732 471.132 -132.972 470.192L-118.009 462.2C-116.303 461.288 -115.049 459.767 -114.487 457.916C-113.925 456.066 -114.121 454.103 -115.033 452.398L-115.079 452.311L-43.7424 414.207C-42.3387 415.371 -40.7363 416.24 -39.0109 416.764C-36.1603 417.629 -33.0154 417.556 -30.0544 416.379C-30.0352 416.376 -30.0135 416.364 -30.0026 416.359L170.776 331.651C172.447 333.642 174.658 335.115 177.2 335.887C180.659 336.937 184.328 336.576 187.512 334.876L240.767 306.43C242.256 305.635 242.815 303.793 242.02 302.305C241.225 300.816 239.383 300.257 237.894 301.052L184.631 329.495C182.881 330.429 180.864 330.627 178.964 330.05C177.063 329.472 175.497 328.186 174.562 326.437L111.836 209.014C109.903 205.396 111.275 200.878 114.893 198.945L182.72 162.717L255.984 299.881C257.336 302.413 259.585 304.152 262.136 304.926C264.686 305.701 267.522 305.506 270.054 304.153L286.399 295.416C288.844 294.11 290.645 291.926 291.453 289.267C292.257 286.616 291.983 283.802 290.669 281.355ZM-120.885 456.829L-135.847 464.821C-136.402 465.117 -137.102 464.905 -137.398 464.35L-176.244 391.623C-176.441 391.254 -176.384 390.916 -176.334 390.749C-176.283 390.582 -176.14 390.262 -175.773 390.073L-160.81 382.081C-160.441 381.883 -160.103 381.94 -159.937 381.991C-159.77 382.041 -159.449 382.184 -159.26 382.551L-120.414 455.279C-120.217 455.648 -120.274 455.986 -120.324 456.153C-120.375 456.319 -120.524 456.629 -120.885 456.829ZM108.038 214.835L167.61 326.365L-32.3533 410.729C-35.8706 412.119 -39.8615 410.661 -41.6433 407.325L-75.6026 343.747C-77.3902 340.4 -76.3775 336.256 -73.2933 334.134L108.038 214.835ZM283.534 290.04L267.192 298.769C265.105 299.883 262.496 299.091 261.382 297.005L186.668 157.152L184.578 153.24C183.464 151.153 184.256 148.545 186.343 147.43L202.685 138.701C203.728 138.144 204.9 138.063 205.959 138.384C207.017 138.706 207.946 139.425 208.503 140.468L285.302 284.249C285.842 285.26 285.953 286.423 285.619 287.523C285.284 288.595 284.545 289.5 283.534 290.04Z" fill="black" fill-opacity="0.06"/>
						<path d="M75.2971 255.5C76.1306 255.753 77.0729 255.648 77.8581 255.13L94.4887 244.194C95.8994 243.266 96.2812 241.379 95.3614 239.971C94.4334 238.561 92.5465 238.179 91.1383 239.099L74.5078 250.034C73.0971 250.963 72.7153 252.849 73.635 254.258C74.0485 254.875 74.6386 255.3 75.2971 255.5Z" fill="black" fill-opacity="0.06"/>
						<path d="M-4.92811 308.274C-4.0946 308.527 -3.15225 308.422 -2.36704 307.904L55.4251 269.885C56.8358 268.957 57.2176 267.07 56.2979 265.662C55.3698 264.251 53.4829 263.869 52.0748 264.789L-5.7174 302.808C-7.12808 303.737 -7.5099 305.623 -6.59016 307.032C-6.17925 307.657 -5.58658 308.074 -4.92811 308.274Z" fill="black" fill-opacity="0.06"/>
						<path d="M39.9515 223.318C40.1193 224.534 40.9855 225.489 42.0858 225.823C42.4942 225.947 42.9362 225.991 43.3837 225.926C45.0557 225.696 46.2214 224.166 45.9917 222.494L42.9309 200.016C42.7013 198.344 41.1708 197.178 39.4988 197.408C37.8268 197.638 36.6611 199.168 36.8907 200.84L39.9515 223.318Z" fill="black" fill-opacity="0.06"/>
						</g>
						<g filter="url(#filter0_f_7511_88328)">
						<ellipse cx="139.5" cy="50.5" rx="114.5" ry="112.5" fill="#FCE189" fill-opacity="0.6"/>
						</g>
						<path d="M284.462 171.707L580.508 -128.146L724.473 142.501L308.042 215.537L284.462 171.707Z" fill="url(#paint0_linear_7511_88328)"/>
						</g>
						<defs>
						<filter id="filter0_f_7511_88328" x="-475" y="-562" width="1229" height="1225" filterUnits="userSpaceOnUse" color-interpolation-filters="sRGB">
						<feFlood flood-opacity="0" result="BackgroundImageFix"/>
						<feBlend mode="normal" in="SourceGraphic" in2="BackgroundImageFix" result="shape"/>
						<feGaussianBlur stdDeviation="250" result="effect1_foregroundBlur_7511_88328"/>
						</filter>
						<linearGradient id="paint0_linear_7511_88328" x1="291.789" y1="186.444" x2="659.602" y2="18.8555" gradientUnits="userSpaceOnUse">
						<stop stop-opacity="0"/>
						<stop offset="0.5" stop-opacity="0.15"/>
						<stop offset="1" stop-opacity="0"/>
						</linearGradient>
						<clipPath id="clip0_7511_88328">
						<rect width="619.5" height="360" rx="16" fill="white"/>
						</clipPath>
						<clipPath id="clip1_7511_88328">
						<rect width="446" height="446" fill="white" transform="translate(-85.2135 32.1941) rotate(16.8918)"/>
						</clipPath>
						</defs>
						</svg>