<svg width="620" height="360" viewBox="0 0 620 360" fill="none" xmlns="http://www.w3.org/2000/svg">
						<g clip-path="url(#clip0_7524_88710)">
						<rect x="0.5" width="619.5" height="360" rx="16" fill="black" fill-opacity="0.03"/>
						<path d="M344.372 83.576H342.932C341.62 80.76 340.884 77.24 340.884 73.592C340.884 67.224 343.348 60.12 347.284 55.128H348.884C344.916 59.832 342.292 67.224 342.292 73.784C342.292 77.56 343.028 81.08 344.372 83.576ZM357.512 79.352C352.008 79.352 348.328 75.32 348.328 69.272C348.328 61.56 353.352 55.896 360.168 55.896C364.808 55.896 368.392 58.936 368.712 63.096H367.24C366.792 59.64 363.944 57.272 360.168 57.272C354.152 57.272 349.8 62.328 349.8 69.272C349.8 74.552 352.808 77.944 357.544 77.944C361.416 77.944 364.136 76.184 365.864 72.504H367.496C365.576 77.048 362.216 79.352 357.512 79.352ZM383.337 63.64H384.713L382.281 79H381.193L381.449 75.928C380.009 78.232 378.217 79.384 375.721 79.384C372.329 79.384 370.345 76.856 370.953 72.984L372.425 63.64H373.801L372.361 72.696C371.785 76.248 373.097 78.104 375.881 78.104C379.177 78.104 381.449 75.544 382.089 71.544L383.337 63.64ZM396.722 63.416L396.53 64.632H395.41C392.722 64.632 390.482 66.712 390.034 69.592L388.53 79H387.154L389.586 63.64H390.77L390.514 66.36C391.282 64.504 393.17 63.256 395.314 63.256C395.794 63.256 396.274 63.32 396.722 63.416ZM406.909 63.416L406.717 64.632H405.597C402.909 64.632 400.669 66.712 400.221 69.592L398.717 79H397.341L399.773 63.64H400.957L400.701 66.36C401.469 64.504 403.357 63.256 405.501 63.256C405.981 63.256 406.461 63.32 406.909 63.416ZM413.208 79.384C409.496 79.384 406.84 76.536 406.84 72.568C406.84 67.32 410.36 63.256 414.904 63.256C418.968 63.256 421.432 66.36 420.792 70.328L420.632 71.32H408.312C408.28 71.736 408.248 72.152 408.248 72.568C408.248 75.864 410.264 78.104 413.208 78.104C415.672 78.104 417.848 76.792 418.648 74.616H420.088C419.064 77.624 416.376 79.384 413.208 79.384ZM414.904 64.536C411.864 64.536 409.368 66.872 408.536 70.168H419.384C419.928 66.776 418.008 64.536 414.904 64.536ZM424.436 79H423.06L425.492 63.64H426.58L426.388 66.712C427.828 64.408 429.716 63.256 432.212 63.256C435.764 63.256 437.748 65.784 437.14 69.656L435.668 79H434.292L435.732 69.944C436.308 66.392 434.996 64.536 432.052 64.536C428.756 64.536 426.324 67.096 425.684 71.096L424.436 79ZM442.965 79H441.589L443.829 64.856H440.789L440.981 63.64H444.021L444.789 58.776H446.165L445.397 63.64H448.437L448.245 64.856H445.205L442.965 79ZM447.867 83.576H446.267C450.236 78.872 452.86 71.48 452.86 64.92C452.86 61.144 452.124 57.624 450.78 55.128H452.22C453.532 57.944 454.268 61.464 454.268 65.112C454.268 71.48 451.804 78.584 447.867 83.576ZM476.028 70.936H470.876V79H466.78V55.608H476.028C480.732 55.608 483.772 58.68 483.772 63.256C483.772 67.768 480.7 70.936 476.028 70.936ZM475.228 59.256H470.876V67.288H475.164C477.98 67.288 479.484 65.784 479.484 63.224C479.484 60.664 477.948 59.256 475.228 59.256ZM490.545 79H486.641V55.192H490.577V65.24C491.569 63.704 493.425 62.712 495.697 62.712C499.601 62.712 501.649 65.176 501.649 69.272V79H497.745V70.2C497.745 67.544 496.433 66.264 494.449 66.264C491.985 66.264 490.545 67.992 490.545 70.36V79ZM510.189 79.416C506.829 79.416 504.781 77.464 504.781 74.488C504.781 71.576 506.893 69.752 510.637 69.464L515.373 69.112V68.76C515.373 66.616 514.093 65.752 512.109 65.752C509.805 65.752 508.525 66.712 508.525 68.376H505.197C505.197 64.952 508.013 62.712 512.301 62.712C516.557 62.712 519.181 65.016 519.181 69.4V79H515.757L515.469 76.664C514.797 78.296 512.653 79.416 510.189 79.416ZM511.469 76.472C513.869 76.472 515.405 75.032 515.405 72.6V71.768L512.109 72.024C509.677 72.248 508.749 73.048 508.749 74.328C508.749 75.768 509.709 76.472 511.469 76.472ZM521.8 74.2H525.512C525.544 75.576 526.568 76.44 528.36 76.44C530.184 76.44 531.176 75.704 531.176 74.552C531.176 73.752 530.76 73.176 529.352 72.856L526.504 72.184C523.656 71.544 522.28 70.2 522.28 67.672C522.28 64.568 524.904 62.712 528.552 62.712C532.104 62.712 534.504 64.76 534.536 67.832H530.824C530.792 66.488 529.896 65.624 528.392 65.624C526.856 65.624 525.96 66.328 525.96 67.512C525.96 68.408 526.664 68.984 528.008 69.304L530.856 69.976C533.512 70.584 534.856 71.8 534.856 74.232C534.856 77.432 532.136 79.416 528.232 79.416C524.296 79.416 521.8 77.304 521.8 74.2ZM544.901 79.416C540.197 79.416 536.901 75.992 536.901 71.096C536.901 66.136 540.133 62.712 544.773 62.712C549.509 62.712 552.517 65.88 552.517 70.808V71.992L540.613 72.024C540.901 74.808 542.373 76.216 544.965 76.216C547.109 76.216 548.517 75.384 548.965 73.88H552.581C551.909 77.336 549.029 79.416 544.901 79.416ZM544.805 65.912C542.501 65.912 541.093 67.16 540.709 69.528H548.645C548.645 67.352 547.141 65.912 544.805 65.912ZM568.458 59.288H563.338V55.608H572.394V79H568.458V59.288Z" fill="black"/>
						<path d="M155.475 98.8V112.12H162.235V113H154.515V98.8H155.475ZM166.877 113.24C164.817 113.24 163.637 112.1 163.637 110.46C163.637 108.7 164.997 107.58 167.237 107.4L170.537 107.14V106.78C170.537 104.62 169.257 104 167.737 104C165.957 104 164.897 104.84 164.897 106.24H163.977C163.977 104.36 165.497 103.16 167.757 103.16C169.817 103.16 171.457 104.16 171.457 106.64V113H170.717L170.537 111.2C169.877 112.5 168.537 113.24 166.877 113.24ZM166.997 112.42C169.257 112.42 170.537 110.78 170.537 108.42V107.9L167.317 108.16C165.377 108.32 164.557 109.26 164.557 110.44C164.557 111.76 165.557 112.42 166.997 112.42ZM181.212 103.4H182.132V113H181.392L181.212 111.22C180.692 112.42 179.332 113.24 177.732 113.24C175.432 113.24 174.252 111.66 174.252 109.32V103.38H175.192V109.08C175.192 111.54 176.352 112.4 177.952 112.4C179.972 112.4 181.212 111 181.212 108.52V103.4ZM186.092 113H185.172V103.4H185.912L186.112 105.26C186.752 103.92 188.072 103.16 189.512 103.16C192.232 103.16 193.252 104.76 193.252 107.16V113H192.332V107.34C192.332 104.8 191.232 104 189.492 104C187.312 104 186.092 105.62 186.092 108.04V113ZM195.448 108.24C195.448 105.2 197.248 103.16 200.008 103.16C202.068 103.16 203.608 104.38 204.048 106.2H203.108C202.708 104.78 201.428 103.98 200.008 103.98C197.868 103.98 196.348 105.62 196.348 108.22C196.348 110.7 197.748 112.4 199.888 112.4C201.428 112.4 202.708 111.52 203.148 110.22H204.088C203.568 112.04 201.928 113.24 199.888 113.24C197.248 113.24 195.448 111.24 195.448 108.24ZM207.225 112.98H206.305V98.56H207.225V105.26C207.845 104.02 209.045 103.16 210.745 103.16C213.325 103.16 214.385 104.76 214.385 107.16V113H213.465V107.34C213.465 104.8 212.325 104 210.685 104C208.385 104 207.225 105.76 207.225 107.78V112.98ZM224.147 98.8V113H223.187V98.8H224.147ZM228.378 113H227.458V103.4H228.198L228.398 105.26C229.038 103.92 230.358 103.16 231.798 103.16C234.518 103.16 235.538 104.76 235.538 107.16V113H234.618V107.34C234.618 104.8 233.518 104 231.778 104C229.598 104 228.378 105.62 228.378 108.04V113ZM238.914 100.46C238.454 100.46 238.074 100.08 238.074 99.64C238.074 99.18 238.454 98.78 238.914 98.78C239.354 98.78 239.754 99.18 239.754 99.64C239.754 100.08 239.354 100.46 238.914 100.46ZM238.454 113V103.4H239.374V113H238.454ZM244.158 113H243.238V104.2H241.298V103.4H243.238V100.36H244.158V103.4H246.098V104.2H244.158V113ZM248.484 100.46C248.024 100.46 247.644 100.08 247.644 99.64C247.644 99.18 248.024 98.78 248.484 98.78C248.924 98.78 249.324 99.18 249.324 99.64C249.324 100.08 248.924 100.46 248.484 100.46ZM248.024 113V103.4H248.944V113H248.024ZM254.709 113.24C252.649 113.24 251.469 112.1 251.469 110.46C251.469 108.7 252.829 107.58 255.069 107.4L258.369 107.14V106.78C258.369 104.62 257.089 104 255.569 104C253.789 104 252.729 104.84 252.729 106.24H251.809C251.809 104.36 253.329 103.16 255.589 103.16C257.649 103.16 259.289 104.16 259.289 106.64V113H258.549L258.369 111.2C257.709 112.5 256.369 113.24 254.709 113.24ZM254.829 112.42C257.089 112.42 258.369 110.78 258.369 108.42V107.9L255.149 108.16C253.209 108.32 252.389 109.26 252.389 110.44C252.389 111.76 253.389 112.42 254.829 112.42ZM263.204 113H262.284V98.56H263.204V113ZM277.51 107.66H273.17V113H272.21V98.8H277.51C280.21 98.8 281.87 100.56 281.87 103.2C281.87 105.7 280.19 107.66 277.51 107.66ZM277.47 99.68H273.17V106.78H277.35C279.57 106.78 280.89 105.28 280.89 103.16C280.89 101.02 279.55 99.68 277.47 99.68ZM288.561 103.26V104.06H287.841C286.061 104.06 284.901 105.36 284.901 107.16V113H283.981V103.4H284.841L284.921 104.94C285.301 103.86 286.361 103.16 287.721 103.16C288.021 103.16 288.241 103.18 288.561 103.26ZM289.374 108.2C289.374 105.3 291.394 103.16 294.134 103.16C296.874 103.16 298.894 105.3 298.894 108.2C298.894 111.1 296.874 113.24 294.134 113.24C291.394 113.24 289.374 111.1 289.374 108.2ZM290.314 108.2C290.314 110.66 291.894 112.4 294.134 112.4C296.374 112.4 297.954 110.66 297.954 108.2C297.954 105.74 296.374 104 294.134 104C291.894 104 290.314 105.74 290.314 108.2ZM304.908 113.24C302.088 113.24 300.488 111.04 300.488 108.2C300.488 105.36 302.088 103.16 304.908 103.16C306.608 103.16 307.928 103.92 308.628 105.48V98.56H309.548V113H308.808L308.668 110.84C307.948 112.48 306.568 113.24 304.908 113.24ZM305.008 112.4C307.308 112.4 308.608 110.64 308.608 108.2C308.608 105.78 307.308 104 305.008 104C302.728 104 301.428 105.78 301.428 108.2C301.428 110.64 302.728 112.4 305.008 112.4ZM319.434 103.4H320.354V113H319.614L319.434 111.22C318.914 112.42 317.554 113.24 315.954 113.24C313.654 113.24 312.474 111.66 312.474 109.32V103.38H313.414V109.08C313.414 111.54 314.574 112.4 316.174 112.4C318.194 112.4 319.434 111 319.434 108.52V103.4ZM322.48 108.24C322.48 105.2 324.28 103.16 327.04 103.16C329.1 103.16 330.64 104.38 331.08 106.2H330.14C329.74 104.78 328.46 103.98 327.04 103.98C324.9 103.98 323.38 105.62 323.38 108.22C323.38 110.7 324.78 112.4 326.92 112.4C328.46 112.4 329.74 111.52 330.18 110.22H331.12C330.6 112.04 328.96 113.24 326.92 113.24C324.28 113.24 322.48 111.24 322.48 108.24ZM335.076 113H334.156V104.2H332.216V103.4H334.156V100.36H335.076V103.4H337.016V104.2H335.076V113ZM338.082 110.4H338.982C338.982 111.64 339.902 112.4 341.382 112.4C343.002 112.4 344.002 111.68 344.002 110.5C344.002 109.56 343.542 109.08 342.302 108.76L340.682 108.34C339.042 107.92 338.262 107 338.262 105.82C338.262 104.22 339.582 103.16 341.562 103.16C343.542 103.16 344.782 104.22 344.842 105.96H343.942C343.882 104.72 343.002 104 341.562 104C340.022 104 339.182 104.64 339.182 105.82C339.182 106.64 339.742 107.22 340.902 107.52L342.502 107.94C344.182 108.38 344.922 109.16 344.922 110.5C344.922 112.14 343.522 113.24 341.422 113.24C339.382 113.24 338.082 112.14 338.082 110.4ZM349.264 112.42C349.264 113.48 348.404 114.44 347.344 114.62V113.98C347.964 113.86 348.444 113.36 348.444 112.86C348.344 112.94 348.184 113 347.924 113C347.484 113 347.064 112.68 347.064 112.06C347.064 111.48 347.484 111.04 348.104 111.04C348.684 111.04 349.264 111.52 349.264 112.42ZM361.93 113L356.47 98.8H357.49L361.59 109.42C361.89 110.18 362.17 110.92 362.47 111.84C362.77 110.9 363.15 109.86 363.33 109.4L367.41 98.8H368.39L362.95 113H361.93ZM371.428 113.24C369.368 113.24 368.188 112.1 368.188 110.46C368.188 108.7 369.548 107.58 371.788 107.4L375.088 107.14V106.78C375.088 104.62 373.808 104 372.288 104C370.508 104 369.448 104.84 369.448 106.24H368.528C368.528 104.36 370.048 103.16 372.308 103.16C374.368 103.16 376.008 104.16 376.008 106.64V113H375.268L375.088 111.2C374.428 112.5 373.088 113.24 371.428 113.24ZM371.548 112.42C373.808 112.42 375.088 110.78 375.088 108.42V107.9L371.868 108.16C369.928 108.32 369.108 109.26 369.108 110.44C369.108 111.76 370.108 112.42 371.548 112.42ZM379.922 113H379.002V98.56H379.922V113ZM383.503 100.46C383.043 100.46 382.663 100.08 382.663 99.64C382.663 99.18 383.043 98.78 383.503 98.78C383.943 98.78 384.343 99.18 384.343 99.64C384.343 100.08 383.943 100.46 383.503 100.46ZM383.043 113V103.4H383.963V113H383.043ZM390.708 113.24C387.888 113.24 386.288 111.04 386.288 108.2C386.288 105.36 387.888 103.16 390.708 103.16C392.408 103.16 393.728 103.92 394.428 105.48V98.56H395.348V113H394.608L394.468 110.84C393.748 112.48 392.368 113.24 390.708 113.24ZM390.808 112.4C393.108 112.4 394.408 110.64 394.408 108.2C394.408 105.78 393.108 104 390.808 104C388.528 104 387.228 105.78 387.228 108.2C387.228 110.64 388.528 112.4 390.808 112.4ZM401.115 113.24C399.055 113.24 397.875 112.1 397.875 110.46C397.875 108.7 399.235 107.58 401.475 107.4L404.775 107.14V106.78C404.775 104.62 403.495 104 401.975 104C400.195 104 399.135 104.84 399.135 106.24H398.215C398.215 104.36 399.735 103.16 401.995 103.16C404.055 103.16 405.695 104.16 405.695 106.64V113H404.955L404.775 111.2C404.115 112.5 402.775 113.24 401.115 113.24ZM401.235 112.42C403.495 112.42 404.775 110.78 404.775 108.42V107.9L401.555 108.16C399.615 108.32 398.795 109.26 398.795 110.44C398.795 111.76 399.795 112.42 401.235 112.42ZM410.155 113H409.235V104.2H407.295V103.4H409.235V100.36H410.155V103.4H412.095V104.2H410.155V113ZM417.822 113.24C415.042 113.24 413.202 111.24 413.202 108.22C413.202 105.22 415.022 103.16 417.702 103.16C420.202 103.16 421.922 104.96 421.922 107.58V108.22H414.122C414.202 110.84 415.562 112.4 417.822 112.4C419.522 112.4 420.602 111.66 420.982 110.24H421.922C421.362 112.22 419.982 113.24 417.822 113.24ZM417.702 104C415.742 104 414.362 105.36 414.142 107.46H420.982C420.982 105.38 419.682 104 417.702 104ZM435.8 113.22C431.92 113.22 429.22 110.22 429.22 105.9C429.22 101.56 431.94 98.56 435.88 98.56C438.78 98.56 441.14 100.36 441.76 103.06H440.7C440.06 100.86 438.18 99.48 435.82 99.48C432.48 99.48 430.2 102.08 430.2 105.9C430.2 109.72 432.48 112.3 435.82 112.3C438.18 112.3 440.12 110.98 440.78 108.94H441.84C441.16 111.5 438.72 113.22 435.8 113.22ZM443.437 108.2C443.437 105.3 445.457 103.16 448.197 103.16C450.937 103.16 452.957 105.3 452.957 108.2C452.957 111.1 450.937 113.24 448.197 113.24C445.457 113.24 443.437 111.1 443.437 108.2ZM444.377 108.2C444.377 110.66 445.957 112.4 448.197 112.4C450.437 112.4 452.017 110.66 452.017 108.2C452.017 105.74 450.437 104 448.197 104C445.957 104 444.377 105.74 444.377 108.2ZM459.85 103.26V104.06H459.13C457.35 104.06 456.19 105.36 456.19 107.16V113H455.27V103.4H456.13L456.21 104.94C456.59 103.86 457.65 103.16 459.01 103.16C459.31 103.16 459.53 103.18 459.85 103.26ZM465.283 113.24C462.503 113.24 460.663 111.24 460.663 108.22C460.663 105.22 462.483 103.16 465.163 103.16C467.663 103.16 469.383 104.96 469.383 107.58V108.22H461.583C461.663 110.84 463.023 112.4 465.283 112.4C466.983 112.4 468.063 111.66 468.443 110.24H469.383C468.823 112.22 467.443 113.24 465.283 113.24ZM465.163 104C463.203 104 461.823 105.36 461.603 107.46H468.443C468.443 105.38 467.143 104 465.163 104ZM478.541 113H477.581V98.8H478.541V105.34H486.801V98.8H487.761V113H486.801V106.22H478.541V113ZM490.05 117.06V116.32H490.95C491.73 116.32 492.69 116.32 493.19 114.96L493.67 113.66L489.77 103.4H490.73L494.11 112.4L497.35 103.4H498.29L494.03 115.22C493.53 116.6 492.65 117.18 491.35 117.18C490.83 117.18 490.45 117.14 490.05 117.06ZM500.016 117.06V103.4H500.756L500.896 105.56C501.616 103.92 502.996 103.16 504.656 103.16C507.476 103.16 509.076 105.36 509.076 108.2C509.076 111.04 507.476 113.24 504.656 113.24C502.956 113.24 501.636 112.48 500.936 110.92V117.06H500.016ZM500.956 108.2C500.956 110.62 502.256 112.4 504.556 112.4C506.836 112.4 508.136 110.62 508.136 108.2C508.136 105.76 506.836 104 504.556 104C502.256 104 500.956 105.76 500.956 108.2ZM510.683 108.2C510.683 105.3 512.703 103.16 515.443 103.16C518.183 103.16 520.203 105.3 520.203 108.2C520.203 111.1 518.183 113.24 515.443 113.24C512.703 113.24 510.683 111.1 510.683 108.2ZM511.623 108.2C511.623 110.66 513.203 112.4 515.443 112.4C517.683 112.4 519.263 110.66 519.263 108.2C519.263 105.74 517.683 104 515.443 104C513.203 104 511.623 105.74 511.623 108.2ZM524.158 113H523.238V104.2H521.298V103.4H523.238V100.36H524.158V103.4H526.098V104.2H524.158V113ZM528.944 112.98H528.024V98.56H528.944V105.26C529.564 104.02 530.764 103.16 532.464 103.16C535.044 103.16 536.104 104.76 536.104 107.16V113H535.184V107.34C535.184 104.8 534.044 104 532.404 104C530.104 104 528.944 105.76 528.944 107.78V112.98ZM542.92 113.24C540.14 113.24 538.3 111.24 538.3 108.22C538.3 105.22 540.12 103.16 542.8 103.16C545.3 103.16 547.02 104.96 547.02 107.58V108.22H539.22C539.3 110.84 540.66 112.4 542.92 112.4C544.62 112.4 545.7 111.66 546.08 110.24H547.02C546.46 112.22 545.08 113.24 542.92 113.24ZM542.8 104C540.84 104 539.46 105.36 539.24 107.46H546.08C546.08 105.38 544.78 104 542.8 104ZM548.472 110.4H549.373C549.373 111.64 550.293 112.4 551.773 112.4C553.393 112.4 554.393 111.68 554.393 110.5C554.393 109.56 553.933 109.08 552.693 108.76L551.073 108.34C549.433 107.92 548.653 107 548.653 105.82C548.653 104.22 549.973 103.16 551.953 103.16C553.933 103.16 555.173 104.22 555.233 105.96H554.333C554.273 104.72 553.393 104 551.953 104C550.413 104 549.573 104.64 549.573 105.82C549.573 106.64 550.133 107.22 551.293 107.52L552.893 107.94C554.573 108.38 555.313 109.16 555.313 110.5C555.313 112.14 553.913 113.24 551.813 113.24C549.773 113.24 548.472 112.14 548.472 110.4ZM561.67 113.24C558.89 113.24 557.05 111.24 557.05 108.22C557.05 105.22 558.87 103.16 561.55 103.16C564.05 103.16 565.77 104.96 565.77 107.58V108.22H557.97C558.05 110.84 559.41 112.4 561.67 112.4C563.37 112.4 564.45 111.66 564.83 110.24H565.77C565.21 112.22 563.83 113.24 561.67 113.24ZM561.55 104C559.59 104 558.21 105.36 557.99 107.46H564.83C564.83 105.38 563.53 104 561.55 104ZM567.222 110.4H568.123C568.123 111.64 569.043 112.4 570.523 112.4C572.143 112.4 573.143 111.68 573.143 110.5C573.143 109.56 572.683 109.08 571.443 108.76L569.823 108.34C568.183 107.92 567.403 107 567.403 105.82C567.403 104.22 568.723 103.16 570.703 103.16C572.683 103.16 573.923 104.22 573.983 105.96H573.083C573.023 104.72 572.143 104 570.703 104C569.163 104 568.323 104.64 568.323 105.82C568.323 106.64 568.883 107.22 570.043 107.52L571.643 107.94C573.323 108.38 574.063 109.16 574.063 110.5C574.063 112.14 572.663 113.24 570.563 113.24C568.523 113.24 567.222 112.14 567.222 110.4Z" fill="black"/>
						<path d="M469.934 168.936H464.782V177H460.686V153.608H469.934C474.638 153.608 477.678 156.68 477.678 161.256C477.678 165.768 474.606 168.936 469.934 168.936ZM469.134 157.256H464.782V165.288H469.07C471.886 165.288 473.39 163.784 473.39 161.224C473.39 158.664 471.854 157.256 469.134 157.256ZM484.451 177H480.547V153.192H484.483V163.24C485.475 161.704 487.331 160.712 489.603 160.712C493.507 160.712 495.555 163.176 495.555 167.272V177H491.651V168.2C491.651 165.544 490.339 164.264 488.355 164.264C485.891 164.264 484.451 165.992 484.451 168.36V177ZM504.095 177.416C500.735 177.416 498.687 175.464 498.687 172.488C498.687 169.576 500.799 167.752 504.543 167.464L509.279 167.112V166.76C509.279 164.616 507.999 163.752 506.015 163.752C503.711 163.752 502.431 164.712 502.431 166.376H499.103C499.103 162.952 501.919 160.712 506.207 160.712C510.463 160.712 513.087 163.016 513.087 167.4V177H509.663L509.375 174.664C508.703 176.296 506.559 177.416 504.095 177.416ZM505.375 174.472C507.775 174.472 509.311 173.032 509.311 170.6V169.768L506.015 170.024C503.583 170.248 502.655 171.048 502.655 172.328C502.655 173.768 503.615 174.472 505.375 174.472ZM515.706 172.2H519.418C519.45 173.576 520.474 174.44 522.266 174.44C524.09 174.44 525.082 173.704 525.082 172.552C525.082 171.752 524.666 171.176 523.258 170.856L520.41 170.184C517.562 169.544 516.186 168.2 516.186 165.672C516.186 162.568 518.81 160.712 522.458 160.712C526.01 160.712 528.41 162.76 528.442 165.832H524.73C524.698 164.488 523.802 163.624 522.298 163.624C520.762 163.624 519.866 164.328 519.866 165.512C519.866 166.408 520.57 166.984 521.914 167.304L524.762 167.976C527.418 168.584 528.762 169.8 528.762 172.232C528.762 175.432 526.042 177.416 522.138 177.416C518.202 177.416 515.706 175.304 515.706 172.2ZM538.807 177.416C534.103 177.416 530.807 173.992 530.807 169.096C530.807 164.136 534.039 160.712 538.679 160.712C543.415 160.712 546.423 163.88 546.423 168.808V169.992L534.519 170.024C534.807 172.808 536.279 174.216 538.871 174.216C541.015 174.216 542.423 173.384 542.871 171.88H546.487C545.815 175.336 542.935 177.416 538.807 177.416ZM538.711 163.912C536.407 163.912 534.999 165.16 534.615 167.528H542.551C542.551 165.352 541.047 163.912 538.711 163.912ZM573.852 176.968L557.628 177V173.928L565.276 167.464C568.444 164.776 569.5 163.24 569.5 161C569.5 158.344 568.06 156.84 565.596 156.84C563.036 156.84 561.436 158.632 561.404 161.64H557.34C557.372 156.52 560.636 153.192 565.596 153.192C570.588 153.192 573.692 156.04 573.692 160.776C573.692 164.04 571.9 166.504 568.348 169.544L564.124 173.16H573.852V176.968Z" fill="black"/>
						<path d="M129.69 200.38C129.69 198.06 131.51 196.56 134.31 196.56C136.75 196.56 138.37 197.92 138.65 200.2H137.65C137.45 198.44 136.25 197.44 134.31 197.44C132.11 197.44 130.65 198.6 130.65 200.38C130.65 201.74 131.47 202.64 133.09 203.06L135.61 203.7C137.75 204.24 138.89 205.52 138.89 207.34C138.89 209.72 137.05 211.24 134.21 211.24C131.55 211.24 129.75 209.86 129.53 207.64H130.55C130.63 209.26 132.09 210.34 134.21 210.34C136.47 210.34 137.93 209.18 137.93 207.36C137.93 205.96 137.11 205.02 135.43 204.6L132.97 203.98C130.83 203.44 129.69 202.22 129.69 200.38ZM140.585 206.24C140.585 203.2 142.385 201.16 145.145 201.16C147.205 201.16 148.745 202.38 149.185 204.2H148.245C147.845 202.78 146.565 201.98 145.145 201.98C143.005 201.98 141.485 203.62 141.485 206.22C141.485 208.7 142.885 210.4 145.025 210.4C146.565 210.4 147.845 209.52 148.285 208.22H149.225C148.705 210.04 147.065 211.24 145.025 211.24C142.385 211.24 140.585 209.24 140.585 206.24ZM154.162 211.24C152.102 211.24 150.922 210.1 150.922 208.46C150.922 206.7 152.282 205.58 154.522 205.4L157.822 205.14V204.78C157.822 202.62 156.542 202 155.022 202C153.242 202 152.182 202.84 152.182 204.24H151.262C151.262 202.36 152.782 201.16 155.042 201.16C157.102 201.16 158.742 202.16 158.742 204.64V211H158.002L157.822 209.2C157.162 210.5 155.822 211.24 154.162 211.24ZM154.282 210.42C156.542 210.42 157.822 208.78 157.822 206.42V205.9L154.602 206.16C152.662 206.32 151.842 207.26 151.842 208.44C151.842 209.76 152.842 210.42 154.282 210.42ZM162.657 211H161.737V196.56H162.657V211ZM169.678 211.24C166.898 211.24 165.058 209.24 165.058 206.22C165.058 203.22 166.878 201.16 169.558 201.16C172.058 201.16 173.778 202.96 173.778 205.58V206.22H165.978C166.058 208.84 167.418 210.4 169.678 210.4C171.378 210.4 172.458 209.66 172.838 208.24H173.778C173.218 210.22 171.838 211.24 169.678 211.24ZM169.558 202C167.598 202 166.218 203.36 165.998 205.46H172.838C172.838 203.38 171.538 202 169.558 202ZM184.676 211L180.476 196.8H181.476L184.636 207.56C184.816 208.2 184.976 208.88 185.156 209.7C185.396 208.76 185.576 208.2 185.776 207.56L189.236 196.8H190.196L193.676 207.56C193.896 208.22 194.076 208.9 194.276 209.68C194.476 208.7 194.656 208.02 194.796 207.56L197.996 196.8H198.976L194.736 211H193.856L189.716 198.2L185.596 211H184.676ZM201.717 210.98H200.797V196.56H201.717V203.26C202.337 202.02 203.537 201.16 205.237 201.16C207.817 201.16 208.877 202.76 208.877 205.16V211H207.957V205.34C207.957 202.8 206.817 202 205.177 202C202.877 202 201.717 203.76 201.717 205.78V210.98ZM214.513 211.24C212.453 211.24 211.273 210.1 211.273 208.46C211.273 206.7 212.633 205.58 214.873 205.4L218.173 205.14V204.78C218.173 202.62 216.893 202 215.373 202C213.593 202 212.533 202.84 212.533 204.24H211.613C211.613 202.36 213.133 201.16 215.393 201.16C217.453 201.16 219.093 202.16 219.093 204.64V211H218.353L218.173 209.2C217.513 210.5 216.173 211.24 214.513 211.24ZM214.633 210.42C216.893 210.42 218.173 208.78 218.173 206.42V205.9L214.953 206.16C213.013 206.32 212.193 207.26 212.193 208.44C212.193 209.76 213.193 210.42 214.633 210.42ZM223.553 211H222.633V202.2H220.693V201.4H222.633V198.36H223.553V201.4H225.493V202.2H223.553V211ZM236.004 211L231.804 196.8H232.804L235.964 207.56C236.144 208.2 236.304 208.88 236.484 209.7C236.724 208.76 236.904 208.2 237.104 207.56L240.564 196.8H241.524L245.004 207.56C245.224 208.22 245.404 208.9 245.604 209.68C245.804 208.7 245.984 208.02 246.124 207.56L249.324 196.8H250.304L246.064 211H245.184L241.044 198.2L236.924 211H236.004ZM250.409 206.2C250.409 203.3 252.429 201.16 255.169 201.16C257.909 201.16 259.929 203.3 259.929 206.2C259.929 209.1 257.909 211.24 255.169 211.24C252.429 211.24 250.409 209.1 250.409 206.2ZM251.349 206.2C251.349 208.66 252.929 210.4 255.169 210.4C257.409 210.4 258.989 208.66 258.989 206.2C258.989 203.74 257.409 202 255.169 202C252.929 202 251.349 203.74 251.349 206.2ZM266.823 201.26V202.06H266.103C264.323 202.06 263.163 203.36 263.163 205.16V211H262.243V201.4H263.103L263.183 202.94C263.563 201.86 264.623 201.16 265.983 201.16C266.283 201.16 266.503 201.18 266.823 201.26ZM269.747 211H268.827V196.56H269.747V206.78L274.967 201.4H276.147L272.427 205.24L276.187 211H275.127L271.807 205.86L269.747 208V211ZM277.242 208.4H278.142C278.142 209.64 279.062 210.4 280.542 210.4C282.162 210.4 283.162 209.68 283.162 208.5C283.162 207.56 282.702 207.08 281.462 206.76L279.842 206.34C278.202 205.92 277.422 205 277.422 203.82C277.422 202.22 278.742 201.16 280.722 201.16C282.702 201.16 283.942 202.22 284.002 203.96H283.102C283.042 202.72 282.162 202 280.722 202C279.182 202 278.342 202.64 278.342 203.82C278.342 204.64 278.902 205.22 280.062 205.52L281.662 205.94C283.342 206.38 284.082 207.16 284.082 208.5C284.082 210.14 282.682 211.24 280.582 211.24C278.542 211.24 277.242 210.14 277.242 208.4ZM288.424 210.42C288.424 211.48 287.564 212.44 286.504 212.62V211.98C287.124 211.86 287.604 211.36 287.604 210.86C287.504 210.94 287.344 211 287.084 211C286.644 211 286.224 210.68 286.224 210.06C286.224 209.48 286.644 209.04 287.264 209.04C287.844 209.04 288.424 209.52 288.424 210.42ZM305.59 211H297.23V196.8H305.57V197.68H298.19V203.44H304.91V204.32H298.19V210.12H305.59V211ZM308.117 211H306.997L310.477 206.16L307.017 201.4H308.137L311.117 205.52L314.097 201.4H315.197L311.717 206.2L315.197 211H314.077L311.077 206.86L308.117 211ZM316.911 215.06V201.4H317.651L317.791 203.56C318.511 201.92 319.891 201.16 321.551 201.16C324.371 201.16 325.971 203.36 325.971 206.2C325.971 209.04 324.371 211.24 321.551 211.24C319.851 211.24 318.531 210.48 317.831 208.92V215.06H316.911ZM317.851 206.2C317.851 208.62 319.151 210.4 321.451 210.4C323.731 210.4 325.031 208.62 325.031 206.2C325.031 203.76 323.731 202 321.451 202C319.151 202 317.851 203.76 317.851 206.2ZM331.017 211.24C328.957 211.24 327.777 210.1 327.777 208.46C327.777 206.7 329.137 205.58 331.377 205.4L334.677 205.14V204.78C334.677 202.62 333.397 202 331.877 202C330.097 202 329.037 202.84 329.037 204.24H328.117C328.117 202.36 329.637 201.16 331.897 201.16C333.957 201.16 335.597 202.16 335.597 204.64V211H334.857L334.677 209.2C334.017 210.5 332.677 211.24 331.017 211.24ZM331.137 210.42C333.397 210.42 334.677 208.78 334.677 206.42V205.9L331.457 206.16C329.517 206.32 328.697 207.26 328.697 208.44C328.697 209.76 329.697 210.42 331.137 210.42ZM339.432 211H338.512V201.4H339.252L339.452 203.26C340.092 201.92 341.412 201.16 342.852 201.16C345.572 201.16 346.592 202.76 346.592 205.16V211H345.672V205.34C345.672 202.8 344.572 202 342.832 202C340.652 202 339.432 203.62 339.432 206.04V211ZM353.208 211.24C350.388 211.24 348.788 209.04 348.788 206.2C348.788 203.36 350.388 201.16 353.208 201.16C354.908 201.16 356.228 201.92 356.928 203.48V196.56H357.848V211H357.108L356.968 208.84C356.248 210.48 354.868 211.24 353.208 211.24ZM353.308 210.4C355.608 210.4 356.908 208.64 356.908 206.2C356.908 203.78 355.608 202 353.308 202C351.028 202 349.728 203.78 349.728 206.2C349.728 208.64 351.028 210.4 353.308 210.4ZM367.74 196.8V211H366.78V196.8H367.74ZM371.971 211H371.051V201.4H371.791L371.991 203.26C372.631 201.92 373.951 201.16 375.391 201.16C378.111 201.16 379.131 202.76 379.131 205.16V211H378.211V205.34C378.211 202.8 377.111 202 375.371 202C373.191 202 371.971 203.62 371.971 206.04V211ZM383.787 211H382.867V202.2H380.927V201.4H382.867V198.36H383.787V201.4H385.727V202.2H383.787V211ZM386.835 206.2C386.835 203.3 388.855 201.16 391.595 201.16C394.335 201.16 396.355 203.3 396.355 206.2C396.355 209.1 394.335 211.24 391.595 211.24C388.855 211.24 386.835 209.1 386.835 206.2ZM387.775 206.2C387.775 208.66 389.355 210.4 391.595 210.4C393.835 210.4 395.415 208.66 395.415 206.2C395.415 203.74 393.835 202 391.595 202C389.355 202 387.775 203.74 387.775 206.2ZM404.014 211H403.054L408.314 196.8H409.734L415.054 211H414.074L412.574 207.02H405.494L404.014 211ZM408.894 197.82L405.814 206.14H412.254L409.134 197.82C409.094 197.7 409.034 197.56 409.014 197.46C408.994 197.54 408.934 197.72 408.894 197.82ZM420.279 211.24C417.459 211.24 415.859 209.04 415.859 206.2C415.859 203.36 417.459 201.16 420.279 201.16C421.979 201.16 423.299 201.92 423.999 203.48V196.56H424.919V211H424.179L424.039 208.84C423.319 210.48 421.939 211.24 420.279 211.24ZM420.379 210.4C422.679 210.4 423.979 208.64 423.979 206.2C423.979 203.78 422.679 202 420.379 202C418.099 202 416.799 203.78 416.799 206.2C416.799 208.64 418.099 210.4 420.379 210.4ZM428.425 198.46C427.965 198.46 427.585 198.08 427.585 197.64C427.585 197.18 427.965 196.78 428.425 196.78C428.865 196.78 429.265 197.18 429.265 197.64C429.265 198.08 428.865 198.46 428.425 198.46ZM425.285 215.08L425.485 214.2C425.905 214.3 426.165 214.34 426.485 214.34C427.485 214.34 427.965 213.74 427.965 212.48V201.4H428.885V212.48C428.885 214.22 428.025 215.24 426.525 215.24C425.985 215.24 425.725 215.2 425.285 215.08ZM434.65 211.24C432.59 211.24 431.41 210.1 431.41 208.46C431.41 206.7 432.77 205.58 435.01 205.4L438.31 205.14V204.78C438.31 202.62 437.03 202 435.51 202C433.73 202 432.67 202.84 432.67 204.24H431.75C431.75 202.36 433.27 201.16 435.53 201.16C437.59 201.16 439.23 202.16 439.23 204.64V211H438.49L438.31 209.2C437.65 210.5 436.31 211.24 434.65 211.24ZM434.77 210.42C437.03 210.42 438.31 208.78 438.31 206.42V205.9L435.09 206.16C433.15 206.32 432.33 207.26 432.33 208.44C432.33 209.76 433.33 210.42 434.77 210.42ZM441.425 206.24C441.425 203.2 443.225 201.16 445.985 201.16C448.045 201.16 449.585 202.38 450.025 204.2H449.085C448.685 202.78 447.405 201.98 445.985 201.98C443.845 201.98 442.325 203.62 442.325 206.22C442.325 208.7 443.725 210.4 445.865 210.4C447.405 210.4 448.685 209.52 449.125 208.22H450.065C449.545 210.04 447.905 211.24 445.865 211.24C443.225 211.24 441.425 209.24 441.425 206.24ZM456.182 211.24C453.402 211.24 451.562 209.24 451.562 206.22C451.562 203.22 453.382 201.16 456.062 201.16C458.562 201.16 460.282 202.96 460.282 205.58V206.22H452.482C452.562 208.84 453.922 210.4 456.182 210.4C457.882 210.4 458.962 209.66 459.342 208.24H460.282C459.722 210.22 458.342 211.24 456.182 211.24ZM456.062 202C454.102 202 452.722 203.36 452.502 205.46H459.342C459.342 203.38 458.042 202 456.062 202ZM463.514 211H462.594V201.4H463.334L463.534 203.26C464.174 201.92 465.494 201.16 466.934 201.16C469.654 201.16 470.674 202.76 470.674 205.16V211H469.754V205.34C469.754 202.8 468.654 202 466.914 202C464.734 202 463.514 203.62 463.514 206.04V211ZM475.33 211H474.41V202.2H472.47V201.4H474.41V198.36H475.33V201.4H477.27V202.2H475.33V211ZM490.761 211.22C486.881 211.22 484.181 208.22 484.181 203.9C484.181 199.56 486.901 196.56 490.841 196.56C493.741 196.56 496.101 198.36 496.721 201.06H495.661C495.021 198.86 493.141 197.48 490.781 197.48C487.441 197.48 485.161 200.08 485.161 203.9C485.161 207.72 487.441 210.3 490.781 210.3C493.141 210.3 495.081 208.98 495.741 206.94H496.801C496.121 209.5 493.681 211.22 490.761 211.22ZM501.642 211.24C499.582 211.24 498.402 210.1 498.402 208.46C498.402 206.7 499.762 205.58 502.002 205.4L505.302 205.14V204.78C505.302 202.62 504.022 202 502.502 202C500.722 202 499.662 202.84 499.662 204.24H498.742C498.742 202.36 500.262 201.16 502.522 201.16C504.582 201.16 506.222 202.16 506.222 204.64V211H505.482L505.302 209.2C504.642 210.5 503.302 211.24 501.642 211.24ZM501.762 210.42C504.022 210.42 505.302 208.78 505.302 206.42V205.9L502.082 206.16C500.142 206.32 499.322 207.26 499.322 208.44C499.322 209.76 500.322 210.42 501.762 210.42ZM510.682 211H509.762V202.2H507.822V201.4H509.762V198.36H510.682V201.4H512.622V202.2H510.682V211ZM518.35 211.24C515.57 211.24 513.73 209.24 513.73 206.22C513.73 203.22 515.55 201.16 518.23 201.16C520.73 201.16 522.45 202.96 522.45 205.58V206.22H514.65C514.73 208.84 516.09 210.4 518.35 210.4C520.05 210.4 521.13 209.66 521.51 208.24H522.45C521.89 210.22 520.51 211.24 518.35 211.24ZM518.23 202C516.27 202 514.89 203.36 514.67 205.46H521.51C521.51 203.38 520.21 202 518.23 202ZM524.042 205.9C524.042 203.36 525.682 201.16 528.522 201.16C530.302 201.16 531.642 202.04 532.282 203.64L532.402 201.4H533.142V210.8C533.142 213.48 531.362 215.28 528.682 215.28C526.362 215.28 524.702 213.98 524.302 211.78H525.202C525.562 213.46 526.862 214.44 528.702 214.44C530.822 214.44 532.242 212.98 532.242 210.8V208.2C531.582 209.74 530.162 210.64 528.422 210.64C525.662 210.64 524.042 208.44 524.042 205.9ZM524.982 205.9C524.982 208.02 526.262 209.8 528.482 209.8C530.762 209.8 532.082 208.14 532.082 205.88C532.082 203.66 530.822 202 528.522 202C526.242 202 524.982 203.8 524.982 205.9ZM535.468 206.2C535.468 203.3 537.488 201.16 540.228 201.16C542.968 201.16 544.988 203.3 544.988 206.2C544.988 209.1 542.968 211.24 540.228 211.24C537.488 211.24 535.468 209.1 535.468 206.2ZM536.408 206.2C536.408 208.66 537.988 210.4 540.228 210.4C542.468 210.4 544.048 208.66 544.048 206.2C544.048 203.74 542.468 202 540.228 202C537.988 202 536.408 203.74 536.408 206.2ZM551.881 201.26V202.06H551.161C549.381 202.06 548.221 203.36 548.221 205.16V211H547.301V201.4H548.161L548.241 202.94C548.621 201.86 549.681 201.16 551.041 201.16C551.341 201.16 551.561 201.18 551.881 201.26ZM554.265 198.46C553.805 198.46 553.425 198.08 553.425 197.64C553.425 197.18 553.805 196.78 554.265 196.78C554.705 196.78 555.105 197.18 555.105 197.64C555.105 198.08 554.705 198.46 554.265 198.46ZM553.805 211V201.4H554.725V211H553.805ZM561.67 211.24C558.89 211.24 557.05 209.24 557.05 206.22C557.05 203.22 558.87 201.16 561.55 201.16C564.05 201.16 565.77 202.96 565.77 205.58V206.22H557.97C558.05 208.84 559.41 210.4 561.67 210.4C563.37 210.4 564.45 209.66 564.83 208.24H565.77C565.21 210.22 563.83 211.24 561.67 211.24ZM561.55 202C559.59 202 558.21 203.36 557.99 205.46H564.83C564.83 203.38 563.53 202 561.55 202ZM567.222 208.4H568.123C568.123 209.64 569.043 210.4 570.523 210.4C572.143 210.4 573.143 209.68 573.143 208.5C573.143 207.56 572.683 207.08 571.443 206.76L569.823 206.34C568.183 205.92 567.403 205 567.403 203.82C567.403 202.22 568.723 201.16 570.703 201.16C572.683 201.16 573.923 202.22 573.983 203.96H573.083C573.023 202.72 572.143 202 570.703 202C569.163 202 568.323 202.64 568.323 203.82C568.323 204.64 568.883 205.22 570.043 205.52L571.643 205.94C573.323 206.38 574.063 207.16 574.063 208.5C574.063 210.14 572.663 211.24 570.563 211.24C568.523 211.24 567.222 210.14 567.222 208.4Z" fill="black"/>
						<path d="M470.559 266.936H465.407V275H461.311V251.608H470.559C475.263 251.608 478.303 254.68 478.303 259.256C478.303 263.768 475.231 266.936 470.559 266.936ZM469.759 255.256H465.407V263.288H469.695C472.511 263.288 474.015 261.784 474.015 259.224C474.015 256.664 472.479 255.256 469.759 255.256ZM485.076 275H481.172V251.192H485.108V261.24C486.1 259.704 487.956 258.712 490.228 258.712C494.132 258.712 496.18 261.176 496.18 265.272V275H492.276V266.2C492.276 263.544 490.964 262.264 488.98 262.264C486.516 262.264 485.076 263.992 485.076 266.36V275ZM504.72 275.416C501.36 275.416 499.312 273.464 499.312 270.488C499.312 267.576 501.424 265.752 505.168 265.464L509.904 265.112V264.76C509.904 262.616 508.624 261.752 506.64 261.752C504.336 261.752 503.056 262.712 503.056 264.376H499.728C499.728 260.952 502.544 258.712 506.832 258.712C511.088 258.712 513.712 261.016 513.712 265.4V275H510.288L510 272.664C509.328 274.296 507.184 275.416 504.72 275.416ZM506 272.472C508.4 272.472 509.936 271.032 509.936 268.6V267.768L506.64 268.024C504.208 268.248 503.28 269.048 503.28 270.328C503.28 271.768 504.24 272.472 506 272.472ZM516.331 270.2H520.043C520.075 271.576 521.099 272.44 522.891 272.44C524.715 272.44 525.707 271.704 525.707 270.552C525.707 269.752 525.291 269.176 523.883 268.856L521.035 268.184C518.187 267.544 516.811 266.2 516.811 263.672C516.811 260.568 519.435 258.712 523.083 258.712C526.635 258.712 529.035 260.76 529.067 263.832H525.355C525.323 262.488 524.427 261.624 522.923 261.624C521.387 261.624 520.491 262.328 520.491 263.512C520.491 264.408 521.195 264.984 522.539 265.304L525.387 265.976C528.043 266.584 529.387 267.8 529.387 270.232C529.387 273.432 526.667 275.416 522.763 275.416C518.827 275.416 516.331 273.304 516.331 270.2ZM539.432 275.416C534.728 275.416 531.432 271.992 531.432 267.096C531.432 262.136 534.664 258.712 539.304 258.712C544.04 258.712 547.048 261.88 547.048 266.808V267.992L535.144 268.024C535.432 270.808 536.904 272.216 539.496 272.216C541.64 272.216 543.048 271.384 543.496 269.88H547.112C546.44 273.336 543.56 275.416 539.432 275.416ZM539.336 261.912C537.032 261.912 535.624 263.16 535.24 265.528H543.176C543.176 263.352 541.672 261.912 539.336 261.912ZM565.069 263.416H562.221V260.76L568.237 255.224H558.509V251.608H573.357V254.872L567.661 260.12C571.245 260.824 574.029 263.448 574.029 267.576C574.029 272.376 570.285 275.416 565.549 275.416C560.973 275.416 557.421 272.6 557.421 267.544H561.453C561.453 270.232 563.117 271.768 565.613 271.768C568.173 271.768 569.869 270.104 569.869 267.512C569.869 265.144 568.333 263.416 565.069 263.416Z" fill="black"/>
						<path d="M110.754 309H105.394V294.8H110.394C113.094 294.8 114.754 296.16 114.754 298.4C114.754 300.1 114.014 301.22 112.494 301.82C114.214 302.4 115.074 303.56 115.074 305.32C115.074 307.54 113.354 309 110.754 309ZM110.454 295.68H106.354V301.44H110.674C112.634 301.44 113.774 300.34 113.774 298.48C113.774 296.72 112.554 295.68 110.454 295.68ZM110.814 302.32H106.354V308.12H110.814C112.874 308.12 114.094 307.02 114.094 305.2C114.094 303.42 112.854 302.32 110.814 302.32ZM124.337 299.4H125.257V309H124.517L124.337 307.22C123.817 308.42 122.457 309.24 120.857 309.24C118.557 309.24 117.377 307.66 117.377 305.32V299.38H118.317V305.08C118.317 307.54 119.477 308.4 121.077 308.4C123.097 308.4 124.337 307 124.337 304.52V299.4ZM128.757 296.46C128.297 296.46 127.917 296.08 127.917 295.64C127.917 295.18 128.297 294.78 128.757 294.78C129.197 294.78 129.597 295.18 129.597 295.64C129.597 296.08 129.197 296.46 128.757 296.46ZM128.297 309V299.4H129.217V309H128.297ZM133.262 309H132.342V294.56H133.262V309ZM140.083 309.24C137.263 309.24 135.663 307.04 135.663 304.2C135.663 301.36 137.263 299.16 140.083 299.16C141.783 299.16 143.103 299.92 143.803 301.48V294.56H144.723V309H143.983L143.843 306.84C143.123 308.48 141.743 309.24 140.083 309.24ZM140.183 308.4C142.483 308.4 143.783 306.64 143.783 304.2C143.783 301.78 142.483 300 140.183 300C137.903 300 136.603 301.78 136.603 304.2C136.603 306.64 137.903 308.4 140.183 308.4ZM152.055 295.68V294.8H161.935V295.68H157.475V309H156.515V295.68H152.055ZM164.569 308.98H163.649V294.56H164.569V301.26C165.189 300.02 166.389 299.16 168.089 299.16C170.669 299.16 171.729 300.76 171.729 303.16V309H170.809V303.34C170.809 300.8 169.669 300 168.029 300C165.729 300 164.569 301.76 164.569 303.78V308.98ZM178.545 309.24C175.765 309.24 173.925 307.24 173.925 304.22C173.925 301.22 175.745 299.16 178.425 299.16C180.925 299.16 182.645 300.96 182.645 303.58V304.22H174.845C174.925 306.84 176.285 308.4 178.545 308.4C180.245 308.4 181.325 307.66 181.705 306.24H182.645C182.085 308.22 180.705 309.24 178.545 309.24ZM178.425 300C176.465 300 175.085 301.36 174.865 303.46H181.705C181.705 301.38 180.405 300 178.425 300ZM191.803 294.8V309H190.843V294.8H191.803ZM196.034 309H195.114V299.4H195.854L196.054 301.26C196.694 299.92 198.014 299.16 199.454 299.16C202.174 299.16 203.194 300.76 203.194 303.16V309H202.274V303.34C202.274 300.8 201.174 300 199.434 300C197.254 300 196.034 301.62 196.034 304.04V309ZM204.99 299.4H206.49V297.24C206.49 295.28 207.59 294.56 208.79 294.56C209.11 294.56 209.49 294.58 209.77 294.62V295.42H208.95C207.75 295.42 207.41 296.02 207.41 297.24V299.4H209.67V300.2H207.41V309H206.49V300.2H204.99V299.4ZM216.276 299.26V300.06H215.556C213.776 300.06 212.616 301.36 212.616 303.16V309H211.696V299.4H212.556L212.636 300.94C213.016 299.86 214.076 299.16 215.436 299.16C215.736 299.16 215.956 299.18 216.276 299.26ZM220.529 309.24C218.469 309.24 217.289 308.1 217.289 306.46C217.289 304.7 218.649 303.58 220.889 303.4L224.189 303.14V302.78C224.189 300.62 222.909 300 221.389 300C219.609 300 218.549 300.84 218.549 302.24H217.629C217.629 300.36 219.149 299.16 221.409 299.16C223.469 299.16 225.109 300.16 225.109 302.64V309H224.369L224.189 307.2C223.529 308.5 222.189 309.24 220.529 309.24ZM220.649 308.42C222.909 308.42 224.189 306.78 224.189 304.42V303.9L220.969 304.16C219.029 304.32 218.209 305.26 218.209 306.44C218.209 307.76 219.209 308.42 220.649 308.42ZM227.164 306.4H228.064C228.064 307.64 228.984 308.4 230.464 308.4C232.084 308.4 233.084 307.68 233.084 306.5C233.084 305.56 232.624 305.08 231.384 304.76L229.764 304.34C228.124 303.92 227.344 303 227.344 301.82C227.344 300.22 228.664 299.16 230.644 299.16C232.624 299.16 233.864 300.22 233.924 301.96H233.024C232.964 300.72 232.084 300 230.644 300C229.104 300 228.264 300.64 228.264 301.82C228.264 302.64 228.824 303.22 229.984 303.52L231.584 303.94C233.264 304.38 234.004 305.16 234.004 306.5C234.004 308.14 232.604 309.24 230.504 309.24C228.464 309.24 227.164 308.14 227.164 306.4ZM238.201 309H237.281V300.2H235.341V299.4H237.281V296.36H238.201V299.4H240.141V300.2H238.201V309ZM246.647 299.26V300.06H245.927C244.147 300.06 242.987 301.36 242.987 303.16V309H242.067V299.4H242.927L243.007 300.94C243.387 299.86 244.447 299.16 245.807 299.16C246.107 299.16 246.327 299.18 246.647 299.26ZM255.411 299.4H256.331V309H255.591L255.411 307.22C254.891 308.42 253.531 309.24 251.931 309.24C249.631 309.24 248.451 307.66 248.451 305.32V299.38H249.391V305.08C249.391 307.54 250.551 308.4 252.151 308.4C254.171 308.4 255.411 307 255.411 304.52V299.4ZM258.456 304.24C258.456 301.2 260.256 299.16 263.016 299.16C265.076 299.16 266.616 300.38 267.056 302.2H266.116C265.716 300.78 264.436 299.98 263.016 299.98C260.876 299.98 259.356 301.62 259.356 304.22C259.356 306.7 260.756 308.4 262.896 308.4C264.436 308.4 265.716 307.52 266.156 306.22H267.096C266.576 308.04 264.936 309.24 262.896 309.24C260.256 309.24 258.456 307.24 258.456 304.24ZM271.053 309H270.133V300.2H268.193V299.4H270.133V296.36H271.053V299.4H272.993V300.2H271.053V309ZM281.758 299.4H282.678V309H281.938L281.758 307.22C281.238 308.42 279.878 309.24 278.278 309.24C275.978 309.24 274.798 307.66 274.798 305.32V299.38H275.738V305.08C275.738 307.54 276.898 308.4 278.498 308.4C280.518 308.4 281.758 307 281.758 304.52V299.4ZM290.299 299.26V300.06H289.579C287.799 300.06 286.639 301.36 286.639 303.16V309H285.719V299.4H286.579L286.659 300.94C287.039 299.86 288.099 299.16 289.459 299.16C289.759 299.16 289.979 299.18 290.299 299.26ZM295.733 309.24C292.952 309.24 291.113 307.24 291.113 304.22C291.113 301.22 292.933 299.16 295.613 299.16C298.113 299.16 299.833 300.96 299.833 303.58V304.22H292.033C292.113 306.84 293.473 308.4 295.733 308.4C297.433 308.4 298.513 307.66 298.893 306.24H299.833C299.273 308.22 297.893 309.24 295.733 309.24ZM295.613 300C293.653 300 292.273 301.36 292.053 303.46H298.893C298.893 301.38 297.593 300 295.613 300ZM315.03 302.56H308.99V309H308.03V294.8H316.19V295.68H308.99V301.68H315.03V302.56ZM316.933 304.2C316.933 301.3 318.953 299.16 321.693 299.16C324.433 299.16 326.453 301.3 326.453 304.2C326.453 307.1 324.433 309.24 321.693 309.24C318.953 309.24 316.933 307.1 316.933 304.2ZM317.873 304.2C317.873 306.66 319.453 308.4 321.693 308.4C323.933 308.4 325.513 306.66 325.513 304.2C325.513 301.74 323.933 300 321.693 300C319.453 300 317.873 301.74 317.873 304.2ZM333.346 299.26V300.06H332.626C330.846 300.06 329.686 301.36 329.686 303.16V309H328.766V299.4H329.626L329.706 300.94C330.086 299.86 331.146 299.16 332.506 299.16C332.806 299.16 333.026 299.18 333.346 299.26ZM340.615 309H339.655L344.915 294.8H346.335L351.655 309H350.675L349.175 305.02H342.095L340.615 309ZM345.495 295.82L342.415 304.14H348.855L345.735 295.82C345.695 295.7 345.635 295.56 345.615 295.46C345.595 295.54 345.535 295.72 345.495 295.82ZM357.759 295.68V294.8H367.639V295.68H363.179V309H362.219V295.68H357.759ZM372.741 299.26V300.06H372.021C370.241 300.06 369.081 301.36 369.081 303.16V309H368.161V299.4H369.021L369.101 300.94C369.481 299.86 370.541 299.16 371.901 299.16C372.201 299.16 372.421 299.18 372.741 299.26ZM381.505 299.4H382.425V309H381.685L381.505 307.22C380.985 308.42 379.625 309.24 378.025 309.24C375.725 309.24 374.545 307.66 374.545 305.32V299.38H375.485V305.08C375.485 307.54 376.645 308.4 378.245 308.4C380.265 308.4 381.505 307 381.505 304.52V299.4ZM389.17 309.24C386.39 309.24 384.55 307.24 384.55 304.22C384.55 301.22 386.37 299.16 389.05 299.16C391.55 299.16 393.27 300.96 393.27 303.58V304.22H385.47C385.55 306.84 386.91 308.4 389.17 308.4C390.87 308.4 391.95 307.66 392.33 306.24H393.27C392.71 308.22 391.33 309.24 389.17 309.24ZM389.05 300C387.09 300 385.71 301.36 385.49 303.46H392.33C392.33 301.38 391.03 300 389.05 300ZM402.428 309H401.468V294.8H402.428L407.868 307.84L413.288 294.8H414.268V309H413.308V301.22C413.308 298.9 413.348 297.7 413.408 296.76L408.348 309H407.388L402.328 296.82C402.368 297.22 402.428 298.88 402.428 301.22V309ZM424.434 299.4H425.354V309H424.614L424.434 307.22C423.914 308.42 422.554 309.24 420.954 309.24C418.654 309.24 417.474 307.66 417.474 305.32V299.38H418.414V305.08C418.414 307.54 419.574 308.4 421.174 308.4C423.194 308.4 424.434 307 424.434 304.52V299.4ZM429.395 309H428.475V294.56H429.395V309ZM434.256 309H433.336V300.2H431.396V299.4H433.336V296.36H434.256V299.4H436.196V300.2H434.256V309ZM438.582 296.46C438.122 296.46 437.742 296.08 437.742 295.64C437.742 295.18 438.122 294.78 438.582 294.78C439.022 294.78 439.422 295.18 439.422 295.64C439.422 296.08 439.022 296.46 438.582 296.46ZM438.122 309V299.4H439.042V309H438.122ZM441.866 304.2V303.36H447.386V304.2H441.866ZM455.791 303.66H451.451V309H450.491V294.8H455.791C458.491 294.8 460.151 296.56 460.151 299.2C460.151 301.7 458.471 303.66 455.791 303.66ZM455.751 295.68H451.451V302.78H455.631C457.851 302.78 459.171 301.28 459.171 299.16C459.171 297.02 457.831 295.68 455.751 295.68ZM466.842 299.26V300.06H466.122C464.342 300.06 463.182 301.36 463.182 303.16V309H462.262V299.4H463.122L463.202 300.94C463.582 299.86 464.642 299.16 466.002 299.16C466.302 299.16 466.522 299.18 466.842 299.26ZM467.655 304.2C467.655 301.3 469.675 299.16 472.415 299.16C475.155 299.16 477.175 301.3 477.175 304.2C477.175 307.1 475.155 309.24 472.415 309.24C469.675 309.24 467.655 307.1 467.655 304.2ZM468.595 304.2C468.595 306.66 470.175 308.4 472.415 308.4C474.655 308.4 476.235 306.66 476.235 304.2C476.235 301.74 474.655 300 472.415 300C470.175 300 468.595 301.74 468.595 304.2ZM483.189 309.24C480.369 309.24 478.769 307.04 478.769 304.2C478.769 301.36 480.369 299.16 483.189 299.16C484.889 299.16 486.209 299.92 486.909 301.48V294.56H487.829V309H487.089L486.949 306.84C486.229 308.48 484.849 309.24 483.189 309.24ZM483.289 308.4C485.589 308.4 486.889 306.64 486.889 304.2C486.889 301.78 485.589 300 483.289 300C481.009 300 479.709 301.78 479.709 304.2C479.709 306.64 481.009 308.4 483.289 308.4ZM497.715 299.4H498.635V309H497.895L497.715 307.22C497.195 308.42 495.835 309.24 494.235 309.24C491.935 309.24 490.755 307.66 490.755 305.32V299.38H491.695V305.08C491.695 307.54 492.855 308.4 494.455 308.4C496.475 308.4 497.715 307 497.715 304.52V299.4ZM500.761 304.24C500.761 301.2 502.561 299.16 505.321 299.16C507.381 299.16 508.921 300.38 509.361 302.2H508.421C508.021 300.78 506.741 299.98 505.321 299.98C503.181 299.98 501.661 301.62 501.661 304.22C501.661 306.7 503.061 308.4 505.201 308.4C506.741 308.4 508.021 307.52 508.461 306.22H509.401C508.881 308.04 507.241 309.24 505.201 309.24C502.561 309.24 500.761 307.24 500.761 304.24ZM513.358 309H512.438V300.2H510.498V299.4H512.438V296.36H513.358V299.4H515.298V300.2H513.358V309ZM522.229 298.38C522.229 296.06 524.049 294.56 526.849 294.56C529.289 294.56 530.909 295.92 531.189 298.2H530.189C529.989 296.44 528.789 295.44 526.849 295.44C524.649 295.44 523.189 296.6 523.189 298.38C523.189 299.74 524.009 300.64 525.629 301.06L528.149 301.7C530.289 302.24 531.429 303.52 531.429 305.34C531.429 307.72 529.589 309.24 526.749 309.24C524.089 309.24 522.289 307.86 522.069 305.64H523.089C523.169 307.26 524.629 308.34 526.749 308.34C529.009 308.34 530.469 307.18 530.469 305.36C530.469 303.96 529.649 303.02 527.969 302.6L525.509 301.98C523.369 301.44 522.229 300.22 522.229 298.38ZM535.584 309H534.664V300.2H532.724V299.4H534.664V296.36H535.584V299.4H537.524V300.2H535.584V309ZM546.29 299.4H547.21V309H546.47L546.29 307.22C545.77 308.42 544.41 309.24 542.81 309.24C540.51 309.24 539.33 307.66 539.33 305.32V299.38H540.27V305.08C540.27 307.54 541.43 308.4 543.03 308.4C545.05 308.4 546.29 307 546.29 304.52V299.4ZM553.755 309.24C550.935 309.24 549.335 307.04 549.335 304.2C549.335 301.36 550.935 299.16 553.755 299.16C555.455 299.16 556.775 299.92 557.475 301.48V294.56H558.395V309H557.655L557.515 306.84C556.795 308.48 555.415 309.24 553.755 309.24ZM553.855 308.4C556.155 308.4 557.455 306.64 557.455 304.2C557.455 301.78 556.155 300 553.855 300C551.575 300 550.275 301.78 550.275 304.2C550.275 306.64 551.575 308.4 553.855 308.4ZM561.902 296.46C561.442 296.46 561.062 296.08 561.062 295.64C561.062 295.18 561.442 294.78 561.902 294.78C562.342 294.78 562.742 295.18 562.742 295.64C562.742 296.08 562.342 296.46 561.902 296.46ZM561.442 309V299.4H562.362V309H561.442ZM564.687 304.2C564.687 301.3 566.707 299.16 569.447 299.16C572.187 299.16 574.207 301.3 574.207 304.2C574.207 307.1 572.187 309.24 569.447 309.24C566.707 309.24 564.687 307.1 564.687 304.2ZM565.627 304.2C565.627 306.66 567.207 308.4 569.447 308.4C571.687 308.4 573.267 306.66 573.267 304.2C573.267 301.74 571.687 300 569.447 300C567.207 300 565.627 301.74 565.627 304.2Z" fill="black"/>
						<path d="M-340.359 172.117L-48.4248 -127.845L95.5409 142.802L-320.89 215.837L-340.359 172.117Z" fill="url(#paint0_linear_7524_88710)"/>
						</g>
						<defs>
						<linearGradient id="paint0_linear_7524_88710" x1="-337.143" y1="186.744" x2="30.6696" y2="19.1561" gradientUnits="userSpaceOnUse">
						<stop stop-opacity="0"/>
						<stop offset="0.5" stop-opacity="0.15"/>
						<stop offset="1" stop-opacity="0"/>
						</linearGradient>
						<clipPath id="clip0_7524_88710">
						<rect x="0.5" width="619.5" height="360" rx="16" fill="white"/>
						</clipPath>
						</defs>
						</svg>