<svg width="390" height="257" viewBox="0 0 390 257" fill="none" xmlns="http://www.w3.org/2000/svg">
				<g clip-path="url(#clip0_7576_1225)">
				<rect y="0.281494" width="390" height="256" rx="16" fill="black" fill-opacity="0.03"/>
				<path d="M225.858 52.86H224.958C224.138 51.1 223.678 48.9 223.678 46.62C223.678 42.64 225.218 38.2 227.678 35.08H228.678C226.198 38.02 224.558 42.64 224.558 46.74C224.558 49.1 225.018 51.3 225.858 52.86ZM234.07 50.22C230.63 50.22 228.33 47.7 228.33 43.92C228.33 39.1 231.47 35.56 235.73 35.56C238.63 35.56 240.87 37.46 241.07 40.06H240.15C239.87 37.9 238.09 36.42 235.73 36.42C231.97 36.42 229.25 39.58 229.25 43.92C229.25 47.22 231.13 49.34 234.09 49.34C236.51 49.34 238.21 48.24 239.29 45.94H240.31C239.11 48.78 237.01 50.22 234.07 50.22ZM250.21 40.4H251.07L249.55 50H248.87L249.03 48.08C248.13 49.52 247.01 50.24 245.45 50.24C243.33 50.24 242.09 48.66 242.47 46.24L243.39 40.4H244.25L243.35 46.06C242.99 48.28 243.81 49.44 245.55 49.44C247.61 49.44 249.03 47.84 249.43 45.34L250.21 40.4ZM258.576 40.26L258.456 41.02H257.756C256.076 41.02 254.676 42.32 254.396 44.12L253.456 50H252.596L254.116 40.4H254.856L254.696 42.1C255.176 40.94 256.356 40.16 257.696 40.16C257.996 40.16 258.296 40.2 258.576 40.26ZM264.943 40.26L264.823 41.02H264.123C262.443 41.02 261.043 42.32 260.763 44.12L259.823 50H258.963L260.483 40.4H261.223L261.063 42.1C261.543 40.94 262.723 40.16 264.063 40.16C264.363 40.16 264.663 40.2 264.943 40.26ZM268.88 50.24C266.56 50.24 264.9 48.46 264.9 45.98C264.9 42.7 267.1 40.16 269.94 40.16C272.48 40.16 274.02 42.1 273.62 44.58L273.52 45.2H265.82C265.8 45.46 265.78 45.72 265.78 45.98C265.78 48.04 267.04 49.44 268.88 49.44C270.42 49.44 271.78 48.62 272.28 47.26H273.18C272.54 49.14 270.86 50.24 268.88 50.24ZM269.94 40.96C268.04 40.96 266.48 42.42 265.96 44.48H272.74C273.08 42.36 271.88 40.96 269.94 40.96ZM275.897 50H275.037L276.557 40.4H277.237L277.117 42.32C278.017 40.88 279.197 40.16 280.757 40.16C282.977 40.16 284.217 41.74 283.837 44.16L282.917 50H282.057L282.957 44.34C283.317 42.12 282.497 40.96 280.657 40.96C278.597 40.96 277.077 42.56 276.677 45.06L275.897 50ZM287.478 50H286.618L288.018 41.16H286.118L286.238 40.4H288.138L288.618 37.36H289.478L288.998 40.4H290.898L290.778 41.16H288.878L287.478 50ZM290.542 52.86H289.542C292.022 49.92 293.662 45.3 293.662 41.2C293.662 38.84 293.202 36.64 292.362 35.08H293.262C294.082 36.84 294.542 39.04 294.542 41.32C294.542 45.3 293.002 49.74 290.542 52.86ZM308.142 44.96H304.922V50H302.362V35.38H308.142C311.082 35.38 312.982 37.3 312.982 40.16C312.982 42.98 311.062 44.96 308.142 44.96ZM307.642 37.66H304.922V42.68H307.602C309.362 42.68 310.302 41.74 310.302 40.14C310.302 38.54 309.342 37.66 307.642 37.66ZM317.216 50H314.776V35.12H317.236V41.4C317.856 40.44 319.016 39.82 320.436 39.82C322.876 39.82 324.156 41.36 324.156 43.92V50H321.716V44.5C321.716 42.84 320.896 42.04 319.656 42.04C318.116 42.04 317.216 43.12 317.216 44.6V50ZM329.493 50.26C327.393 50.26 326.113 49.04 326.113 47.18C326.113 45.36 327.433 44.22 329.773 44.04L332.733 43.82V43.6C332.733 42.26 331.933 41.72 330.693 41.72C329.253 41.72 328.453 42.32 328.453 43.36H326.373C326.373 41.22 328.133 39.82 330.813 39.82C333.473 39.82 335.113 41.26 335.113 44V50H332.973L332.793 48.54C332.373 49.56 331.033 50.26 329.493 50.26ZM330.293 48.42C331.793 48.42 332.753 47.52 332.753 46V45.48L330.693 45.64C329.173 45.78 328.593 46.28 328.593 47.08C328.593 47.98 329.193 48.42 330.293 48.42ZM336.75 47H339.07C339.09 47.86 339.73 48.4 340.85 48.4C341.99 48.4 342.61 47.94 342.61 47.22C342.61 46.72 342.35 46.36 341.47 46.16L339.69 45.74C337.91 45.34 337.05 44.5 337.05 42.92C337.05 40.98 338.69 39.82 340.97 39.82C343.19 39.82 344.69 41.1 344.71 43.02H342.39C342.37 42.18 341.81 41.64 340.87 41.64C339.91 41.64 339.35 42.08 339.35 42.82C339.35 43.38 339.79 43.74 340.63 43.94L342.41 44.36C344.07 44.74 344.91 45.5 344.91 47.02C344.91 49.02 343.21 50.26 340.77 50.26C338.31 50.26 336.75 48.94 336.75 47ZM351.188 50.26C348.248 50.26 346.188 48.12 346.188 45.06C346.188 41.96 348.208 39.82 351.108 39.82C354.068 39.82 355.948 41.8 355.948 44.88V45.62L348.508 45.64C348.688 47.38 349.608 48.26 351.228 48.26C352.568 48.26 353.448 47.74 353.728 46.8H355.988C355.568 48.96 353.768 50.26 351.188 50.26ZM351.128 41.82C349.688 41.82 348.808 42.6 348.568 44.08H353.528C353.528 42.72 352.588 41.82 351.128 41.82ZM365.911 37.68H362.711V35.38H368.371V50H365.911V37.68Z" fill="black"/>
				<path d="M76.3324 65.06V74.384H81.0644V75H75.6604V65.06H76.3324ZM84.3137 75.168C82.8717 75.168 82.0457 74.37 82.0457 73.222C82.0457 71.99 82.9977 71.206 84.5657 71.08L86.8757 70.898V70.646C86.8757 69.134 85.9797 68.7 84.9157 68.7C83.6697 68.7 82.9277 69.288 82.9277 70.268H82.2837C82.2837 68.952 83.3477 68.112 84.9297 68.112C86.3717 68.112 87.5197 68.812 87.5197 70.548V75H87.0017L86.8757 73.74C86.4137 74.65 85.4757 75.168 84.3137 75.168ZM84.3977 74.594C85.9797 74.594 86.8757 73.446 86.8757 71.794V71.43L84.6217 71.612C83.2637 71.724 82.6897 72.382 82.6897 73.208C82.6897 74.132 83.3897 74.594 84.3977 74.594ZM94.3481 68.28H94.9921V75H94.4741L94.3481 73.754C93.9841 74.594 93.0321 75.168 91.9121 75.168C90.3021 75.168 89.4761 74.062 89.4761 72.424V68.266H90.1341V72.256C90.1341 73.978 90.9461 74.58 92.0661 74.58C93.4801 74.58 94.3481 73.6 94.3481 71.864V68.28ZM97.7646 75H97.1206V68.28H97.6386L97.7786 69.582C98.2266 68.644 99.1506 68.112 100.159 68.112C102.063 68.112 102.777 69.232 102.777 70.912V75H102.133V71.038C102.133 69.26 101.363 68.7 100.145 68.7C98.6186 68.7 97.7646 69.834 97.7646 71.528V75ZM104.314 71.668C104.314 69.54 105.574 68.112 107.506 68.112C108.948 68.112 110.026 68.966 110.334 70.24H109.676C109.396 69.246 108.5 68.686 107.506 68.686C106.008 68.686 104.944 69.834 104.944 71.654C104.944 73.39 105.924 74.58 107.422 74.58C108.5 74.58 109.396 73.964 109.704 73.054H110.362C109.998 74.328 108.85 75.168 107.422 75.168C105.574 75.168 104.314 73.768 104.314 71.668ZM112.558 74.986H111.914V64.892H112.558V69.582C112.992 68.714 113.832 68.112 115.022 68.112C116.828 68.112 117.57 69.232 117.57 70.912V75H116.926V71.038C116.926 69.26 116.128 68.7 114.98 68.7C113.37 68.7 112.558 69.932 112.558 71.346V74.986ZM124.403 65.06V75H123.731V65.06H124.403ZM127.364 75H126.72V68.28H127.238L127.378 69.582C127.826 68.644 128.75 68.112 129.758 68.112C131.662 68.112 132.376 69.232 132.376 70.912V75H131.732V71.038C131.732 69.26 130.962 68.7 129.744 68.7C128.218 68.7 127.364 69.834 127.364 71.528V75ZM134.74 66.222C134.418 66.222 134.152 65.956 134.152 65.648C134.152 65.326 134.418 65.046 134.74 65.046C135.048 65.046 135.328 65.326 135.328 65.648C135.328 65.956 135.048 66.222 134.74 66.222ZM134.418 75V68.28H135.062V75H134.418ZM138.411 75H137.767V68.84H136.409V68.28H137.767V66.152H138.411V68.28H139.769V68.84H138.411V75ZM141.439 66.222C141.117 66.222 140.851 65.956 140.851 65.648C140.851 65.326 141.117 65.046 141.439 65.046C141.747 65.046 142.027 65.326 142.027 65.648C142.027 65.956 141.747 66.222 141.439 66.222ZM141.117 75V68.28H141.761V75H141.117ZM145.796 75.168C144.354 75.168 143.528 74.37 143.528 73.222C143.528 71.99 144.48 71.206 146.048 71.08L148.358 70.898V70.646C148.358 69.134 147.462 68.7 146.398 68.7C145.152 68.7 144.41 69.288 144.41 70.268H143.766C143.766 68.952 144.83 68.112 146.412 68.112C147.854 68.112 149.002 68.812 149.002 70.548V75H148.484L148.358 73.74C147.896 74.65 146.958 75.168 145.796 75.168ZM145.88 74.594C147.462 74.594 148.358 73.446 148.358 71.794V71.43L146.104 71.612C144.746 71.724 144.172 72.382 144.172 73.208C144.172 74.132 144.872 74.594 145.88 74.594ZM151.743 75H151.099V64.892H151.743V75ZM161.757 71.262H158.719V75H158.047V65.06H161.757C163.647 65.06 164.809 66.292 164.809 68.14C164.809 69.89 163.633 71.262 161.757 71.262ZM161.729 65.676H158.719V70.646H161.645C163.199 70.646 164.123 69.596 164.123 68.112C164.123 66.614 163.185 65.676 161.729 65.676ZM169.493 68.182V68.742H168.989C167.743 68.742 166.931 69.652 166.931 70.912V75H166.287V68.28H166.889L166.945 69.358C167.211 68.602 167.953 68.112 168.905 68.112C169.115 68.112 169.269 68.126 169.493 68.182ZM170.062 71.64C170.062 69.61 171.476 68.112 173.394 68.112C175.312 68.112 176.726 69.61 176.726 71.64C176.726 73.67 175.312 75.168 173.394 75.168C171.476 75.168 170.062 73.67 170.062 71.64ZM170.72 71.64C170.72 73.362 171.826 74.58 173.394 74.58C174.962 74.58 176.068 73.362 176.068 71.64C176.068 69.918 174.962 68.7 173.394 68.7C171.826 68.7 170.72 69.918 170.72 71.64ZM180.935 75.168C178.961 75.168 177.841 73.628 177.841 71.64C177.841 69.652 178.961 68.112 180.935 68.112C182.125 68.112 183.049 68.644 183.539 69.736V64.892H184.183V75H183.665L183.567 73.488C183.063 74.636 182.097 75.168 180.935 75.168ZM181.005 74.58C182.615 74.58 183.525 73.348 183.525 71.64C183.525 69.946 182.615 68.7 181.005 68.7C179.409 68.7 178.499 69.946 178.499 71.64C178.499 73.348 179.409 74.58 181.005 74.58ZM191.104 68.28H191.748V75H191.23L191.104 73.754C190.74 74.594 189.788 75.168 188.668 75.168C187.058 75.168 186.232 74.062 186.232 72.424V68.266H186.89V72.256C186.89 73.978 187.702 74.58 188.822 74.58C190.236 74.58 191.104 73.6 191.104 71.864V68.28ZM193.236 71.668C193.236 69.54 194.496 68.112 196.428 68.112C197.87 68.112 198.948 68.966 199.256 70.24H198.598C198.318 69.246 197.422 68.686 196.428 68.686C194.93 68.686 193.866 69.834 193.866 71.654C193.866 73.39 194.846 74.58 196.344 74.58C197.422 74.58 198.318 73.964 198.626 73.054H199.284C198.92 74.328 197.772 75.168 196.344 75.168C194.496 75.168 193.236 73.768 193.236 71.668ZM202.053 75H201.409V68.84H200.051V68.28H201.409V66.152H202.053V68.28H203.411V68.84H202.053V75ZM204.157 73.18H204.787C204.787 74.048 205.431 74.58 206.467 74.58C207.601 74.58 208.301 74.076 208.301 73.25C208.301 72.592 207.979 72.256 207.111 72.032L205.977 71.738C204.829 71.444 204.283 70.8 204.283 69.974C204.283 68.854 205.207 68.112 206.593 68.112C207.979 68.112 208.847 68.854 208.889 70.072H208.259C208.217 69.204 207.601 68.7 206.593 68.7C205.515 68.7 204.927 69.148 204.927 69.974C204.927 70.548 205.319 70.954 206.131 71.164L207.251 71.458C208.427 71.766 208.945 72.312 208.945 73.25C208.945 74.398 207.965 75.168 206.495 75.168C205.067 75.168 204.157 74.398 204.157 73.18ZM211.985 74.594C211.985 75.336 211.383 76.008 210.641 76.134V75.686C211.075 75.602 211.411 75.252 211.411 74.902C211.341 74.958 211.229 75 211.047 75C210.739 75 210.445 74.776 210.445 74.342C210.445 73.936 210.739 73.628 211.173 73.628C211.579 73.628 211.985 73.964 211.985 74.594ZM220.851 75L217.029 65.06H217.743L220.613 72.494C220.823 73.026 221.019 73.544 221.229 74.188C221.439 73.53 221.705 72.802 221.831 72.48L224.687 65.06H225.373L221.565 75H220.851ZM227.499 75.168C226.057 75.168 225.231 74.37 225.231 73.222C225.231 71.99 226.183 71.206 227.751 71.08L230.061 70.898V70.646C230.061 69.134 229.165 68.7 228.101 68.7C226.855 68.7 226.113 69.288 226.113 70.268H225.469C225.469 68.952 226.533 68.112 228.115 68.112C229.557 68.112 230.705 68.812 230.705 70.548V75H230.187L230.061 73.74C229.599 74.65 228.661 75.168 227.499 75.168ZM227.583 74.594C229.165 74.594 230.061 73.446 230.061 71.794V71.43L227.807 71.612C226.449 71.724 225.875 72.382 225.875 73.208C225.875 74.132 226.575 74.594 227.583 74.594ZM233.446 75H232.802V64.892H233.446V75ZM235.952 66.222C235.63 66.222 235.364 65.956 235.364 65.648C235.364 65.326 235.63 65.046 235.952 65.046C236.26 65.046 236.54 65.326 236.54 65.648C236.54 65.956 236.26 66.222 235.952 66.222ZM235.63 75V68.28H236.274V75H235.63ZM240.996 75.168C239.022 75.168 237.902 73.628 237.902 71.64C237.902 69.652 239.022 68.112 240.996 68.112C242.186 68.112 243.11 68.644 243.6 69.736V64.892H244.244V75H243.726L243.628 73.488C243.124 74.636 242.158 75.168 240.996 75.168ZM241.066 74.58C242.676 74.58 243.586 73.348 243.586 71.64C243.586 69.946 242.676 68.7 241.066 68.7C239.47 68.7 238.56 69.946 238.56 71.64C238.56 73.348 239.47 74.58 241.066 74.58ZM248.281 75.168C246.839 75.168 246.013 74.37 246.013 73.222C246.013 71.99 246.965 71.206 248.533 71.08L250.843 70.898V70.646C250.843 69.134 249.947 68.7 248.883 68.7C247.637 68.7 246.895 69.288 246.895 70.268H246.251C246.251 68.952 247.315 68.112 248.897 68.112C250.339 68.112 251.487 68.812 251.487 70.548V75H250.969L250.843 73.74C250.381 74.65 249.443 75.168 248.281 75.168ZM248.365 74.594C249.947 74.594 250.843 73.446 250.843 71.794V71.43L248.589 71.612C247.231 71.724 246.657 72.382 246.657 73.208C246.657 74.132 247.357 74.594 248.365 74.594ZM254.608 75H253.964V68.84H252.606V68.28H253.964V66.152H254.608V68.28H255.966V68.84H254.608V75ZM259.976 75.168C258.03 75.168 256.742 73.768 256.742 71.654C256.742 69.554 258.016 68.112 259.892 68.112C261.642 68.112 262.846 69.372 262.846 71.206V71.654H257.386C257.442 73.488 258.394 74.58 259.976 74.58C261.166 74.58 261.922 74.062 262.188 73.068H262.846C262.454 74.454 261.488 75.168 259.976 75.168ZM259.892 68.7C258.52 68.7 257.554 69.652 257.4 71.122H262.188C262.188 69.666 261.278 68.7 259.892 68.7ZM272.56 75.154C269.844 75.154 267.954 73.054 267.954 70.03C267.954 66.992 269.858 64.892 272.616 64.892C274.646 64.892 276.298 66.152 276.732 68.042H275.99C275.542 66.502 274.226 65.536 272.574 65.536C270.236 65.536 268.64 67.356 268.64 70.03C268.64 72.704 270.236 74.51 272.574 74.51C274.226 74.51 275.584 73.586 276.046 72.158H276.788C276.312 73.95 274.604 75.154 272.56 75.154ZM277.906 71.64C277.906 69.61 279.32 68.112 281.238 68.112C283.156 68.112 284.57 69.61 284.57 71.64C284.57 73.67 283.156 75.168 281.238 75.168C279.32 75.168 277.906 73.67 277.906 71.64ZM278.564 71.64C278.564 73.362 279.67 74.58 281.238 74.58C282.806 74.58 283.912 73.362 283.912 71.64C283.912 69.918 282.806 68.7 281.238 68.7C279.67 68.7 278.564 69.918 278.564 71.64ZM289.395 68.182V68.742H288.891C287.645 68.742 286.833 69.652 286.833 70.912V75H286.189V68.28H286.791L286.847 69.358C287.113 68.602 287.855 68.112 288.807 68.112C289.017 68.112 289.171 68.126 289.395 68.182ZM293.198 75.168C291.252 75.168 289.964 73.768 289.964 71.654C289.964 69.554 291.238 68.112 293.114 68.112C294.864 68.112 296.068 69.372 296.068 71.206V71.654H290.608C290.664 73.488 291.616 74.58 293.198 74.58C294.388 74.58 295.144 74.062 295.41 73.068H296.068C295.676 74.454 294.71 75.168 293.198 75.168ZM293.114 68.7C291.742 68.7 290.776 69.652 290.622 71.122H295.41C295.41 69.666 294.5 68.7 293.114 68.7ZM302.479 75H301.807V65.06H302.479V69.638H308.261V65.06H308.933V75H308.261V70.254H302.479V75ZM310.535 77.842V77.324H311.165C311.711 77.324 312.383 77.324 312.733 76.372L313.069 75.462L310.339 68.28H311.011L313.377 74.58L315.645 68.28H316.303L313.321 76.554C312.971 77.52 312.355 77.926 311.445 77.926C311.081 77.926 310.815 77.898 310.535 77.842ZM317.511 77.842V68.28H318.029L318.127 69.792C318.631 68.644 319.597 68.112 320.759 68.112C322.733 68.112 323.853 69.652 323.853 71.64C323.853 73.628 322.733 75.168 320.759 75.168C319.569 75.168 318.645 74.636 318.155 73.544V77.842H317.511ZM318.169 71.64C318.169 73.334 319.079 74.58 320.689 74.58C322.285 74.58 323.195 73.334 323.195 71.64C323.195 69.932 322.285 68.7 320.689 68.7C319.079 68.7 318.169 69.932 318.169 71.64ZM324.978 71.64C324.978 69.61 326.392 68.112 328.31 68.112C330.228 68.112 331.642 69.61 331.642 71.64C331.642 73.67 330.228 75.168 328.31 75.168C326.392 75.168 324.978 73.67 324.978 71.64ZM325.636 71.64C325.636 73.362 326.742 74.58 328.31 74.58C329.878 74.58 330.984 73.362 330.984 71.64C330.984 69.918 329.878 68.7 328.31 68.7C326.742 68.7 325.636 69.918 325.636 71.64ZM334.411 75H333.767V68.84H332.409V68.28H333.767V66.152H334.411V68.28H335.769V68.84H334.411V75ZM337.761 74.986H337.117V64.892H337.761V69.582C338.195 68.714 339.035 68.112 340.225 68.112C342.031 68.112 342.773 69.232 342.773 70.912V75H342.129V71.038C342.129 69.26 341.331 68.7 340.183 68.7C338.573 68.7 337.761 69.932 337.761 71.346V74.986ZM347.544 75.168C345.598 75.168 344.31 73.768 344.31 71.654C344.31 69.554 345.584 68.112 347.46 68.112C349.21 68.112 350.414 69.372 350.414 71.206V71.654H344.954C345.01 73.488 345.962 74.58 347.544 74.58C348.734 74.58 349.49 74.062 349.756 73.068H350.414C350.022 74.454 349.056 75.168 347.544 75.168ZM347.46 68.7C346.088 68.7 345.122 69.652 344.968 71.122H349.756C349.756 69.666 348.846 68.7 347.46 68.7ZM351.431 73.18H352.061C352.061 74.048 352.705 74.58 353.741 74.58C354.875 74.58 355.575 74.076 355.575 73.25C355.575 72.592 355.253 72.256 354.385 72.032L353.251 71.738C352.103 71.444 351.557 70.8 351.557 69.974C351.557 68.854 352.481 68.112 353.867 68.112C355.253 68.112 356.121 68.854 356.163 70.072H355.533C355.491 69.204 354.875 68.7 353.867 68.7C352.789 68.7 352.201 69.148 352.201 69.974C352.201 70.548 352.593 70.954 353.405 71.164L354.525 71.458C355.701 71.766 356.219 72.312 356.219 73.25C356.219 74.398 355.239 75.168 353.769 75.168C352.341 75.168 351.431 74.398 351.431 73.18ZM360.669 75.168C358.723 75.168 357.435 73.768 357.435 71.654C357.435 69.554 358.709 68.112 360.585 68.112C362.335 68.112 363.539 69.372 363.539 71.206V71.654H358.079C358.135 73.488 359.087 74.58 360.669 74.58C361.859 74.58 362.615 74.062 362.881 73.068H363.539C363.147 74.454 362.181 75.168 360.669 75.168ZM360.585 68.7C359.213 68.7 358.247 69.652 358.093 71.122H362.881C362.881 69.666 361.971 68.7 360.585 68.7ZM364.556 73.18H365.186C365.186 74.048 365.83 74.58 366.866 74.58C368 74.58 368.7 74.076 368.7 73.25C368.7 72.592 368.378 72.256 367.51 72.032L366.376 71.738C365.228 71.444 364.682 70.8 364.682 69.974C364.682 68.854 365.606 68.112 366.992 68.112C368.378 68.112 369.246 68.854 369.288 70.072H368.658C368.616 69.204 368 68.7 366.992 68.7C365.914 68.7 365.326 69.148 365.326 69.974C365.326 70.548 365.718 70.954 366.53 71.164L367.65 71.458C368.826 71.766 369.344 72.312 369.344 73.25C369.344 74.398 368.364 75.168 366.894 75.168C365.466 75.168 364.556 74.398 364.556 73.18Z" fill="black"/>
				<path d="M307.767 118.96H304.547V124H301.987V109.38H307.767C310.707 109.38 312.607 111.3 312.607 114.16C312.607 116.98 310.687 118.96 307.767 118.96ZM307.267 111.66H304.547V116.68H307.227C308.987 116.68 309.927 115.74 309.927 114.14C309.927 112.54 308.967 111.66 307.267 111.66ZM316.841 124H314.401V109.12H316.861V115.4C317.481 114.44 318.641 113.82 320.061 113.82C322.501 113.82 323.781 115.36 323.781 117.92V124H321.341V118.5C321.341 116.84 320.521 116.04 319.281 116.04C317.741 116.04 316.841 117.12 316.841 118.6V124ZM329.118 124.26C327.018 124.26 325.738 123.04 325.738 121.18C325.738 119.36 327.058 118.22 329.398 118.04L332.358 117.82V117.6C332.358 116.26 331.558 115.72 330.318 115.72C328.878 115.72 328.078 116.32 328.078 117.36H325.998C325.998 115.22 327.758 113.82 330.438 113.82C333.098 113.82 334.738 115.26 334.738 118V124H332.598L332.418 122.54C331.998 123.56 330.658 124.26 329.118 124.26ZM329.918 122.42C331.418 122.42 332.378 121.52 332.378 120V119.48L330.318 119.64C328.798 119.78 328.218 120.28 328.218 121.08C328.218 121.98 328.818 122.42 329.918 122.42ZM336.375 121H338.695C338.715 121.86 339.355 122.4 340.475 122.4C341.615 122.4 342.235 121.94 342.235 121.22C342.235 120.72 341.975 120.36 341.095 120.16L339.315 119.74C337.535 119.34 336.675 118.5 336.675 116.92C336.675 114.98 338.315 113.82 340.595 113.82C342.815 113.82 344.315 115.1 344.335 117.02H342.015C341.995 116.18 341.435 115.64 340.495 115.64C339.535 115.64 338.975 116.08 338.975 116.82C338.975 117.38 339.415 117.74 340.255 117.94L342.035 118.36C343.695 118.74 344.535 119.5 344.535 121.02C344.535 123.02 342.835 124.26 340.395 124.26C337.935 124.26 336.375 122.94 336.375 121ZM350.813 124.26C347.873 124.26 345.813 122.12 345.813 119.06C345.813 115.96 347.833 113.82 350.733 113.82C353.693 113.82 355.573 115.8 355.573 118.88V119.62L348.133 119.64C348.313 121.38 349.233 122.26 350.853 122.26C352.193 122.26 353.073 121.74 353.353 120.8H355.613C355.193 122.96 353.393 124.26 350.813 124.26ZM350.753 115.82C349.313 115.82 348.433 116.6 348.193 118.08H353.153C353.153 116.72 352.213 115.82 350.753 115.82ZM369.426 123.984L361.314 124V122.464L365.138 119.232C366.722 117.888 367.25 117.12 367.25 116C367.25 114.672 366.53 113.92 365.298 113.92C364.018 113.92 363.218 114.816 363.202 116.32H361.17C361.186 113.76 362.818 112.096 365.298 112.096C367.794 112.096 369.346 113.52 369.346 115.888C369.346 117.52 368.45 118.752 366.674 120.272L364.562 122.08H369.426V123.984Z" fill="black"/>
				<path d="M58.2827 141.566C58.2827 139.942 59.5567 138.892 61.5167 138.892C63.2247 138.892 64.3587 139.844 64.5547 141.44H63.8547C63.7147 140.208 62.8747 139.508 61.5167 139.508C59.9767 139.508 58.9547 140.32 58.9547 141.566C58.9547 142.518 59.5287 143.148 60.6627 143.442L62.4267 143.89C63.9247 144.268 64.7227 145.164 64.7227 146.438C64.7227 148.104 63.4347 149.168 61.4467 149.168C59.5847 149.168 58.3247 148.202 58.1707 146.648H58.8847C58.9407 147.782 59.9627 148.538 61.4467 148.538C63.0287 148.538 64.0507 147.726 64.0507 146.452C64.0507 145.472 63.4767 144.814 62.3007 144.52L60.5787 144.086C59.0807 143.708 58.2827 142.854 58.2827 141.566ZM65.9096 145.668C65.9096 143.54 67.1696 142.112 69.1016 142.112C70.5436 142.112 71.6216 142.966 71.9296 144.24H71.2716C70.9916 143.246 70.0956 142.686 69.1016 142.686C67.6036 142.686 66.5396 143.834 66.5396 145.654C66.5396 147.39 67.5196 148.58 69.0176 148.58C70.0956 148.58 70.9916 147.964 71.2996 147.054H71.9576C71.5936 148.328 70.4456 149.168 69.0176 149.168C67.1696 149.168 65.9096 147.768 65.9096 145.668ZM75.4133 149.168C73.9713 149.168 73.1453 148.37 73.1453 147.222C73.1453 145.99 74.0973 145.206 75.6653 145.08L77.9753 144.898V144.646C77.9753 143.134 77.0793 142.7 76.0153 142.7C74.7693 142.7 74.0273 143.288 74.0273 144.268H73.3833C73.3833 142.952 74.4473 142.112 76.0293 142.112C77.4713 142.112 78.6193 142.812 78.6193 144.548V149H78.1013L77.9753 147.74C77.5133 148.65 76.5753 149.168 75.4133 149.168ZM75.4973 148.594C77.0793 148.594 77.9753 147.446 77.9753 145.794V145.43L75.7213 145.612C74.3633 145.724 73.7893 146.382 73.7893 147.208C73.7893 148.132 74.4893 148.594 75.4973 148.594ZM81.3597 149H80.7157V138.892H81.3597V149ZM86.2745 149.168C84.3285 149.168 83.0405 147.768 83.0405 145.654C83.0405 143.554 84.3145 142.112 86.1905 142.112C87.9405 142.112 89.1445 143.372 89.1445 145.206V145.654H83.6845C83.7405 147.488 84.6925 148.58 86.2745 148.58C87.4645 148.58 88.2205 148.062 88.4865 147.068H89.1445C88.7525 148.454 87.7865 149.168 86.2745 149.168ZM86.1905 142.7C84.8185 142.7 83.8525 143.652 83.6985 145.122H88.4865C88.4865 143.666 87.5765 142.7 86.1905 142.7ZM96.773 149L93.833 139.06H94.533L96.745 146.592C96.871 147.04 96.983 147.516 97.109 148.09C97.277 147.432 97.403 147.04 97.543 146.592L99.965 139.06H100.637L103.073 146.592C103.227 147.054 103.353 147.53 103.493 148.076C103.633 147.39 103.759 146.914 103.857 146.592L106.097 139.06H106.783L103.815 149H103.199L100.301 140.04L97.417 149H96.773ZM108.702 148.986H108.058V138.892H108.702V143.582C109.136 142.714 109.976 142.112 111.166 142.112C112.972 142.112 113.714 143.232 113.714 144.912V149H113.07V145.038C113.07 143.26 112.272 142.7 111.124 142.7C109.514 142.7 108.702 143.932 108.702 145.346V148.986ZM117.659 149.168C116.217 149.168 115.391 148.37 115.391 147.222C115.391 145.99 116.343 145.206 117.911 145.08L120.221 144.898V144.646C120.221 143.134 119.325 142.7 118.261 142.7C117.015 142.7 116.273 143.288 116.273 144.268H115.629C115.629 142.952 116.693 142.112 118.275 142.112C119.717 142.112 120.865 142.812 120.865 144.548V149H120.347L120.221 147.74C119.759 148.65 118.821 149.168 117.659 149.168ZM117.743 148.594C119.325 148.594 120.221 147.446 120.221 145.794V145.43L117.967 145.612C116.609 145.724 116.035 146.382 116.035 147.208C116.035 148.132 116.735 148.594 117.743 148.594ZM123.987 149H123.343V142.84H121.985V142.28H123.343V140.152H123.987V142.28H125.345V142.84H123.987V149ZM132.703 149L129.763 139.06H130.463L132.675 146.592C132.801 147.04 132.913 147.516 133.039 148.09C133.207 147.432 133.333 147.04 133.473 146.592L135.895 139.06H136.567L139.003 146.592C139.157 147.054 139.283 147.53 139.423 148.076C139.563 147.39 139.689 146.914 139.787 146.592L142.027 139.06H142.713L139.745 149H139.129L136.231 140.04L133.347 149H132.703ZM142.787 145.64C142.787 143.61 144.201 142.112 146.119 142.112C148.037 142.112 149.451 143.61 149.451 145.64C149.451 147.67 148.037 149.168 146.119 149.168C144.201 149.168 142.787 147.67 142.787 145.64ZM143.445 145.64C143.445 147.362 144.551 148.58 146.119 148.58C147.687 148.58 148.793 147.362 148.793 145.64C148.793 143.918 147.687 142.7 146.119 142.7C144.551 142.7 143.445 143.918 143.445 145.64ZM154.276 142.182V142.742H153.772C152.526 142.742 151.714 143.652 151.714 144.912V149H151.07V142.28H151.672L151.728 143.358C151.994 142.602 152.736 142.112 153.688 142.112C153.898 142.112 154.052 142.126 154.276 142.182ZM156.323 149H155.679V138.892H156.323V146.046L159.977 142.28H160.803L158.199 144.968L160.831 149H160.089L157.765 145.402L156.323 146.9V149ZM161.569 147.18H162.199C162.199 148.048 162.843 148.58 163.879 148.58C165.013 148.58 165.713 148.076 165.713 147.25C165.713 146.592 165.391 146.256 164.523 146.032L163.389 145.738C162.241 145.444 161.695 144.8 161.695 143.974C161.695 142.854 162.619 142.112 164.005 142.112C165.391 142.112 166.259 142.854 166.301 144.072H165.671C165.629 143.204 165.013 142.7 164.005 142.7C162.927 142.7 162.339 143.148 162.339 143.974C162.339 144.548 162.731 144.954 163.543 145.164L164.663 145.458C165.839 145.766 166.357 146.312 166.357 147.25C166.357 148.398 165.377 149.168 163.907 149.168C162.479 149.168 161.569 148.398 161.569 147.18ZM169.397 148.594C169.397 149.336 168.795 150.008 168.053 150.134V149.686C168.487 149.602 168.823 149.252 168.823 148.902C168.753 148.958 168.641 149 168.459 149C168.151 149 167.857 148.776 167.857 148.342C167.857 147.936 168.151 147.628 168.585 147.628C168.991 147.628 169.397 147.964 169.397 148.594ZM181.413 149H175.561V139.06H181.399V139.676H176.233V143.708H180.937V144.324H176.233V148.384H181.413V149ZM183.182 149H182.398L184.834 145.612L182.412 142.28H183.196L185.282 145.164L187.368 142.28H188.138L185.702 145.64L188.138 149H187.354L185.254 146.102L183.182 149ZM189.337 151.842V142.28H189.855L189.953 143.792C190.457 142.644 191.423 142.112 192.585 142.112C194.559 142.112 195.679 143.652 195.679 145.64C195.679 147.628 194.559 149.168 192.585 149.168C191.395 149.168 190.471 148.636 189.981 147.544V151.842H189.337ZM189.995 145.64C189.995 147.334 190.905 148.58 192.515 148.58C194.111 148.58 195.021 147.334 195.021 145.64C195.021 143.932 194.111 142.7 192.515 142.7C190.905 142.7 189.995 143.932 189.995 145.64ZM199.212 149.168C197.77 149.168 196.944 148.37 196.944 147.222C196.944 145.99 197.896 145.206 199.464 145.08L201.774 144.898V144.646C201.774 143.134 200.878 142.7 199.814 142.7C198.568 142.7 197.826 143.288 197.826 144.268H197.182C197.182 142.952 198.246 142.112 199.828 142.112C201.27 142.112 202.418 142.812 202.418 144.548V149H201.9L201.774 147.74C201.312 148.65 200.374 149.168 199.212 149.168ZM199.296 148.594C200.878 148.594 201.774 147.446 201.774 145.794V145.43L199.52 145.612C198.162 145.724 197.588 146.382 197.588 147.208C197.588 148.132 198.288 148.594 199.296 148.594ZM205.103 149H204.459V142.28H204.977L205.117 143.582C205.565 142.644 206.489 142.112 207.497 142.112C209.401 142.112 210.115 143.232 210.115 144.912V149H209.471V145.038C209.471 143.26 208.701 142.7 207.483 142.7C205.957 142.7 205.103 143.834 205.103 145.528V149ZM214.746 149.168C212.772 149.168 211.652 147.628 211.652 145.64C211.652 143.652 212.772 142.112 214.746 142.112C215.936 142.112 216.86 142.644 217.35 143.736V138.892H217.994V149H217.476L217.378 147.488C216.874 148.636 215.908 149.168 214.746 149.168ZM214.816 148.58C216.426 148.58 217.336 147.348 217.336 145.64C217.336 143.946 216.426 142.7 214.816 142.7C213.22 142.7 212.31 143.946 212.31 145.64C212.31 147.348 213.22 148.58 214.816 148.58ZM224.918 139.06V149H224.246V139.06H224.918ZM227.88 149H227.236V142.28H227.754L227.894 143.582C228.342 142.644 229.266 142.112 230.274 142.112C232.178 142.112 232.892 143.232 232.892 144.912V149H232.248V145.038C232.248 143.26 231.478 142.7 230.26 142.7C228.734 142.7 227.88 143.834 227.88 145.528V149ZM236.151 149H235.507V142.84H234.149V142.28H235.507V140.152H236.151V142.28H237.509V142.84H236.151V149ZM238.285 145.64C238.285 143.61 239.699 142.112 241.617 142.112C243.535 142.112 244.949 143.61 244.949 145.64C244.949 147.67 243.535 149.168 241.617 149.168C239.699 149.168 238.285 147.67 238.285 145.64ZM238.943 145.64C238.943 147.362 240.049 148.58 241.617 148.58C243.185 148.58 244.291 147.362 244.291 145.64C244.291 143.918 243.185 142.7 241.617 142.7C240.049 142.7 238.943 143.918 238.943 145.64ZM250.31 149H249.638L253.32 139.06H254.314L258.038 149H257.352L256.302 146.214H251.346L250.31 149ZM253.726 139.774L251.57 145.598H256.078L253.894 139.774C253.866 139.69 253.824 139.592 253.81 139.522C253.796 139.578 253.754 139.704 253.726 139.774ZM261.695 149.168C259.721 149.168 258.601 147.628 258.601 145.64C258.601 143.652 259.721 142.112 261.695 142.112C262.885 142.112 263.809 142.644 264.299 143.736V138.892H264.943V149H264.425L264.327 147.488C263.823 148.636 262.857 149.168 261.695 149.168ZM261.765 148.58C263.375 148.58 264.285 147.348 264.285 145.64C264.285 143.946 263.375 142.7 261.765 142.7C260.169 142.7 259.259 143.946 259.259 145.64C259.259 147.348 260.169 148.58 261.765 148.58ZM267.398 140.222C267.076 140.222 266.81 139.956 266.81 139.648C266.81 139.326 267.076 139.046 267.398 139.046C267.706 139.046 267.986 139.326 267.986 139.648C267.986 139.956 267.706 140.222 267.398 140.222ZM265.2 151.856L265.34 151.24C265.634 151.31 265.816 151.338 266.04 151.338C266.74 151.338 267.076 150.918 267.076 150.036V142.28H267.72V150.036C267.72 151.254 267.118 151.968 266.068 151.968C265.69 151.968 265.508 151.94 265.2 151.856ZM271.755 149.168C270.313 149.168 269.487 148.37 269.487 147.222C269.487 145.99 270.439 145.206 272.007 145.08L274.317 144.898V144.646C274.317 143.134 273.421 142.7 272.357 142.7C271.111 142.7 270.369 143.288 270.369 144.268H269.725C269.725 142.952 270.789 142.112 272.371 142.112C273.813 142.112 274.961 142.812 274.961 144.548V149H274.443L274.317 147.74C273.855 148.65 272.917 149.168 271.755 149.168ZM271.839 148.594C273.421 148.594 274.317 147.446 274.317 145.794V145.43L272.063 145.612C270.705 145.724 270.131 146.382 270.131 147.208C270.131 148.132 270.831 148.594 271.839 148.594ZM276.498 145.668C276.498 143.54 277.758 142.112 279.69 142.112C281.132 142.112 282.21 142.966 282.518 144.24H281.86C281.58 143.246 280.684 142.686 279.69 142.686C278.192 142.686 277.128 143.834 277.128 145.654C277.128 147.39 278.108 148.58 279.606 148.58C280.684 148.58 281.58 147.964 281.888 147.054H282.546C282.182 148.328 281.034 149.168 279.606 149.168C277.758 149.168 276.498 147.768 276.498 145.668ZM286.827 149.168C284.881 149.168 283.593 147.768 283.593 145.654C283.593 143.554 284.867 142.112 286.743 142.112C288.493 142.112 289.697 143.372 289.697 145.206V145.654H284.237C284.293 147.488 285.245 148.58 286.827 148.58C288.017 148.58 288.773 148.062 289.039 147.068H289.697C289.305 148.454 288.339 149.168 286.827 149.168ZM286.743 142.7C285.371 142.7 284.405 143.652 284.251 145.122H289.039C289.039 143.666 288.129 142.7 286.743 142.7ZM291.96 149H291.316V142.28H291.834L291.974 143.582C292.422 142.644 293.346 142.112 294.354 142.112C296.258 142.112 296.972 143.232 296.972 144.912V149H296.328V145.038C296.328 143.26 295.558 142.7 294.34 142.7C292.814 142.7 291.96 143.834 291.96 145.528V149ZM300.231 149H299.587V142.84H298.229V142.28H299.587V140.152H300.231V142.28H301.589V142.84H300.231V149ZM311.033 149.154C308.317 149.154 306.427 147.054 306.427 144.03C306.427 140.992 308.331 138.892 311.089 138.892C313.119 138.892 314.771 140.152 315.205 142.042H314.463C314.015 140.502 312.699 139.536 311.047 139.536C308.709 139.536 307.113 141.356 307.113 144.03C307.113 146.704 308.709 148.51 311.047 148.51C312.699 148.51 314.057 147.586 314.519 146.158H315.261C314.785 147.95 313.077 149.154 311.033 149.154ZM318.65 149.168C317.208 149.168 316.382 148.37 316.382 147.222C316.382 145.99 317.334 145.206 318.902 145.08L321.212 144.898V144.646C321.212 143.134 320.316 142.7 319.252 142.7C318.006 142.7 317.264 143.288 317.264 144.268H316.62C316.62 142.952 317.684 142.112 319.266 142.112C320.708 142.112 321.856 142.812 321.856 144.548V149H321.338L321.212 147.74C320.75 148.65 319.812 149.168 318.65 149.168ZM318.734 148.594C320.316 148.594 321.212 147.446 321.212 145.794V145.43L318.958 145.612C317.6 145.724 317.026 146.382 317.026 147.208C317.026 148.132 317.726 148.594 318.734 148.594ZM324.977 149H324.333V142.84H322.975V142.28H324.333V140.152H324.977V142.28H326.335V142.84H324.977V149ZM330.345 149.168C328.399 149.168 327.111 147.768 327.111 145.654C327.111 143.554 328.385 142.112 330.261 142.112C332.011 142.112 333.215 143.372 333.215 145.206V145.654H327.755C327.811 147.488 328.763 148.58 330.345 148.58C331.535 148.58 332.291 148.062 332.557 147.068H333.215C332.823 148.454 331.857 149.168 330.345 149.168ZM330.261 142.7C328.889 142.7 327.923 143.652 327.769 145.122H332.557C332.557 143.666 331.647 142.7 330.261 142.7ZM334.33 145.43C334.33 143.652 335.478 142.112 337.466 142.112C338.712 142.112 339.65 142.728 340.098 143.848L340.182 142.28H340.7V148.86C340.7 150.736 339.454 151.996 337.578 151.996C335.954 151.996 334.792 151.086 334.512 149.546H335.142C335.394 150.722 336.304 151.408 337.592 151.408C339.076 151.408 340.07 150.386 340.07 148.86V147.04C339.608 148.118 338.614 148.748 337.396 148.748C335.464 148.748 334.33 147.208 334.33 145.43ZM334.988 145.43C334.988 146.914 335.884 148.16 337.438 148.16C339.034 148.16 339.958 146.998 339.958 145.416C339.958 143.862 339.076 142.7 337.466 142.7C335.87 142.7 334.988 143.96 334.988 145.43ZM342.328 145.64C342.328 143.61 343.742 142.112 345.66 142.112C347.578 142.112 348.992 143.61 348.992 145.64C348.992 147.67 347.578 149.168 345.66 149.168C343.742 149.168 342.328 147.67 342.328 145.64ZM342.986 145.64C342.986 147.362 344.092 148.58 345.66 148.58C347.228 148.58 348.334 147.362 348.334 145.64C348.334 143.918 347.228 142.7 345.66 142.7C344.092 142.7 342.986 143.918 342.986 145.64ZM353.817 142.182V142.742H353.313C352.067 142.742 351.255 143.652 351.255 144.912V149H350.611V142.28H351.213L351.269 143.358C351.535 142.602 352.277 142.112 353.229 142.112C353.439 142.112 353.593 142.126 353.817 142.182ZM355.486 140.222C355.164 140.222 354.898 139.956 354.898 139.648C354.898 139.326 355.164 139.046 355.486 139.046C355.794 139.046 356.074 139.326 356.074 139.648C356.074 139.956 355.794 140.222 355.486 140.222ZM355.164 149V142.28H355.808V149H355.164ZM360.669 149.168C358.723 149.168 357.435 147.768 357.435 145.654C357.435 143.554 358.709 142.112 360.585 142.112C362.335 142.112 363.539 143.372 363.539 145.206V145.654H358.079C358.135 147.488 359.087 148.58 360.669 148.58C361.859 148.58 362.615 148.062 362.881 147.068H363.539C363.147 148.454 362.181 149.168 360.669 149.168ZM360.585 142.7C359.213 142.7 358.247 143.652 358.093 145.122H362.881C362.881 143.666 361.971 142.7 360.585 142.7ZM364.556 147.18H365.186C365.186 148.048 365.83 148.58 366.866 148.58C368 148.58 368.7 148.076 368.7 147.25C368.7 146.592 368.378 146.256 367.51 146.032L366.376 145.738C365.228 145.444 364.682 144.8 364.682 143.974C364.682 142.854 365.606 142.112 366.992 142.112C368.378 142.112 369.246 142.854 369.288 144.072H368.658C368.616 143.204 368 142.7 366.992 142.7C365.914 142.7 365.326 143.148 365.326 143.974C365.326 144.548 365.718 144.954 366.53 145.164L367.65 145.458C368.826 145.766 369.344 146.312 369.344 147.25C369.344 148.398 368.364 149.168 366.894 149.168C365.466 149.168 364.556 148.398 364.556 147.18Z" fill="black"/>
				<path d="M304.724 192.96H301.504V198H298.944V183.38H304.724C307.664 183.38 309.564 185.3 309.564 188.16C309.564 190.98 307.644 192.96 304.724 192.96ZM304.224 185.66H301.504V190.68H304.184C305.944 190.68 306.884 189.74 306.884 188.14C306.884 186.54 305.924 185.66 304.224 185.66ZM313.798 198H311.358V183.12H313.818V189.4C314.438 188.44 315.598 187.82 317.018 187.82C319.458 187.82 320.738 189.36 320.738 191.92V198H318.298V192.5C318.298 190.84 317.478 190.04 316.238 190.04C314.698 190.04 313.798 191.12 313.798 192.6V198ZM326.075 198.26C323.975 198.26 322.695 197.04 322.695 195.18C322.695 193.36 324.015 192.22 326.355 192.04L329.315 191.82V191.6C329.315 190.26 328.515 189.72 327.275 189.72C325.835 189.72 325.035 190.32 325.035 191.36H322.955C322.955 189.22 324.715 187.82 327.395 187.82C330.055 187.82 331.695 189.26 331.695 192V198H329.555L329.375 196.54C328.955 197.56 327.615 198.26 326.075 198.26ZM326.875 196.42C328.375 196.42 329.335 195.52 329.335 194V193.48L327.275 193.64C325.755 193.78 325.175 194.28 325.175 195.08C325.175 195.98 325.775 196.42 326.875 196.42ZM333.332 195H335.652C335.672 195.86 336.312 196.4 337.432 196.4C338.572 196.4 339.192 195.94 339.192 195.22C339.192 194.72 338.932 194.36 338.052 194.16L336.272 193.74C334.492 193.34 333.632 192.5 333.632 190.92C333.632 188.98 335.272 187.82 337.552 187.82C339.772 187.82 341.272 189.1 341.292 191.02H338.972C338.952 190.18 338.392 189.64 337.452 189.64C336.492 189.64 335.932 190.08 335.932 190.82C335.932 191.38 336.372 191.74 337.212 191.94L338.992 192.36C340.652 192.74 341.492 193.5 341.492 195.02C341.492 197.02 339.792 198.26 337.352 198.26C334.892 198.26 333.332 196.94 333.332 195ZM347.77 198.26C344.83 198.26 342.77 196.12 342.77 193.06C342.77 189.96 344.79 187.82 347.69 187.82C350.65 187.82 352.53 189.8 352.53 192.88V193.62L345.09 193.64C345.27 195.38 346.19 196.26 347.81 196.26C349.15 196.26 350.03 195.74 350.31 194.8H352.57C352.15 196.96 350.35 198.26 347.77 198.26ZM347.71 189.82C346.27 189.82 345.39 190.6 345.15 192.08H350.11C350.11 190.72 349.17 189.82 347.71 189.82ZM363.793 190.76H362.013V189.1L365.773 185.64H359.693V183.38H368.973V185.42L365.413 188.7C367.653 189.14 369.393 190.78 369.393 193.36C369.393 196.36 367.053 198.26 364.093 198.26C361.233 198.26 359.013 196.5 359.013 193.34H361.533C361.533 195.02 362.573 195.98 364.133 195.98C365.733 195.98 366.793 194.94 366.793 193.32C366.793 191.84 365.833 190.76 363.793 190.76Z" fill="black"/>
				<path d="M45.0276 223H41.2756V213.06H44.7756C46.6656 213.06 47.8276 214.012 47.8276 215.58C47.8276 216.77 47.3096 217.554 46.2456 217.974C47.4496 218.38 48.0516 219.192 48.0516 220.424C48.0516 221.978 46.8476 223 45.0276 223ZM44.8176 213.676H41.9476V217.708H44.9716C46.3436 217.708 47.1416 216.938 47.1416 215.636C47.1416 214.404 46.2876 213.676 44.8176 213.676ZM45.0696 218.324H41.9476V222.384H45.0696C46.5116 222.384 47.3656 221.614 47.3656 220.34C47.3656 219.094 46.4976 218.324 45.0696 218.324ZM54.5356 216.28H55.1796V223H54.6616L54.5356 221.754C54.1716 222.594 53.2196 223.168 52.0996 223.168C50.4896 223.168 49.6636 222.062 49.6636 220.424V216.266H50.3216V220.256C50.3216 221.978 51.1336 222.58 52.2536 222.58C53.6676 222.58 54.5356 221.6 54.5356 219.864V216.28ZM57.6301 214.222C57.3081 214.222 57.0421 213.956 57.0421 213.648C57.0421 213.326 57.3081 213.046 57.6301 213.046C57.9381 213.046 58.2181 213.326 58.2181 213.648C58.2181 213.956 57.9381 214.222 57.6301 214.222ZM57.3081 223V216.28H57.9521V223H57.3081ZM60.7835 223H60.1395V212.892H60.7835V223ZM65.5583 223.168C63.5843 223.168 62.4643 221.628 62.4643 219.64C62.4643 217.652 63.5843 216.112 65.5583 216.112C66.7483 216.112 67.6723 216.644 68.1623 217.736V212.892H68.8063V223H68.2883L68.1903 221.488C67.6863 222.636 66.7203 223.168 65.5583 223.168ZM65.6283 222.58C67.2383 222.58 68.1483 221.348 68.1483 219.64C68.1483 217.946 67.2383 216.7 65.6283 216.7C64.0323 216.7 63.1223 217.946 63.1223 219.64C63.1223 221.348 64.0323 222.58 65.6283 222.58ZM73.9388 213.676V213.06H80.8548V213.676H77.7328V223H77.0608V213.676H73.9388ZM82.6982 222.986H82.0542V212.892H82.6982V217.582C83.1322 216.714 83.9722 216.112 85.1622 216.112C86.9682 216.112 87.7102 217.232 87.7102 218.912V223H87.0662V219.038C87.0662 217.26 86.2682 216.7 85.1202 216.7C83.5102 216.7 82.6982 217.932 82.6982 219.346V222.986ZM92.4815 223.168C90.5355 223.168 89.2475 221.768 89.2475 219.654C89.2475 217.554 90.5215 216.112 92.3975 216.112C94.1475 216.112 95.3515 217.372 95.3515 219.206V219.654H89.8915C89.9475 221.488 90.8995 222.58 92.4815 222.58C93.6715 222.58 94.4275 222.062 94.6935 221.068H95.3515C94.9595 222.454 93.9935 223.168 92.4815 223.168ZM92.3975 216.7C91.0255 216.7 90.0595 217.652 89.9055 219.122H94.6935C94.6935 217.666 93.7835 216.7 92.3975 216.7ZM101.762 213.06V223H101.09V213.06H101.762ZM104.724 223H104.08V216.28H104.598L104.738 217.582C105.186 216.644 106.11 216.112 107.118 216.112C109.022 216.112 109.736 217.232 109.736 218.912V223H109.092V219.038C109.092 217.26 108.322 216.7 107.104 216.7C105.578 216.7 104.724 217.834 104.724 219.528V223ZM110.993 216.28H112.043V214.768C112.043 213.396 112.813 212.892 113.653 212.892C113.877 212.892 114.143 212.906 114.339 212.934V213.494H113.765C112.925 213.494 112.687 213.914 112.687 214.768V216.28H114.269V216.84H112.687V223H112.043V216.84H110.993V216.28ZM118.893 216.182V216.742H118.389C117.143 216.742 116.331 217.652 116.331 218.912V223H115.687V216.28H116.289L116.345 217.358C116.611 216.602 117.353 216.112 118.305 216.112C118.515 216.112 118.669 216.126 118.893 216.182ZM121.87 223.168C120.428 223.168 119.602 222.37 119.602 221.222C119.602 219.99 120.554 219.206 122.122 219.08L124.432 218.898V218.646C124.432 217.134 123.536 216.7 122.472 216.7C121.226 216.7 120.484 217.288 120.484 218.268H119.84C119.84 216.952 120.904 216.112 122.486 216.112C123.928 216.112 125.076 216.812 125.076 218.548V223H124.558L124.432 221.74C123.97 222.65 123.032 223.168 121.87 223.168ZM121.954 222.594C123.536 222.594 124.432 221.446 124.432 219.794V219.43L122.178 219.612C120.82 219.724 120.246 220.382 120.246 221.208C120.246 222.132 120.946 222.594 121.954 222.594ZM126.515 221.18H127.145C127.145 222.048 127.789 222.58 128.825 222.58C129.959 222.58 130.659 222.076 130.659 221.25C130.659 220.592 130.337 220.256 129.469 220.032L128.335 219.738C127.187 219.444 126.641 218.8 126.641 217.974C126.641 216.854 127.565 216.112 128.951 216.112C130.337 216.112 131.205 216.854 131.247 218.072H130.617C130.575 217.204 129.959 216.7 128.951 216.7C127.873 216.7 127.285 217.148 127.285 217.974C127.285 218.548 127.677 218.954 128.489 219.164L129.609 219.458C130.785 219.766 131.303 220.312 131.303 221.25C131.303 222.398 130.323 223.168 128.853 223.168C127.425 223.168 126.515 222.398 126.515 221.18ZM134.241 223H133.597V216.84H132.239V216.28H133.597V214.152H134.241V216.28H135.599V216.84H134.241V223ZM140.153 216.182V216.742H139.649C138.403 216.742 137.591 217.652 137.591 218.912V223H136.947V216.28H137.549L137.605 217.358C137.871 216.602 138.613 216.112 139.565 216.112C139.775 216.112 139.929 216.126 140.153 216.182ZM146.288 216.28H146.932V223H146.414L146.288 221.754C145.924 222.594 144.972 223.168 143.852 223.168C142.242 223.168 141.416 222.062 141.416 220.424V216.266H142.074V220.256C142.074 221.978 142.886 222.58 144.006 222.58C145.42 222.58 146.288 221.6 146.288 219.864V216.28ZM148.419 219.668C148.419 217.54 149.679 216.112 151.611 216.112C153.053 216.112 154.131 216.966 154.439 218.24H153.781C153.501 217.246 152.605 216.686 151.611 216.686C150.113 216.686 149.049 217.834 149.049 219.654C149.049 221.39 150.029 222.58 151.527 222.58C152.605 222.58 153.501 221.964 153.809 221.054H154.467C154.103 222.328 152.955 223.168 151.527 223.168C149.679 223.168 148.419 221.768 148.419 219.668ZM157.237 223H156.593V216.84H155.235V216.28H156.593V214.152H157.237V216.28H158.595V216.84H157.237V223ZM164.731 216.28H165.375V223H164.857L164.731 221.754C164.367 222.594 163.415 223.168 162.295 223.168C160.685 223.168 159.859 222.062 159.859 220.424V216.266H160.517V220.256C160.517 221.978 161.329 222.58 162.449 222.58C163.863 222.58 164.731 221.6 164.731 219.864V216.28ZM170.709 216.182V216.742H170.205C168.959 216.742 168.147 217.652 168.147 218.912V223H167.503V216.28H168.105L168.161 217.358C168.427 216.602 169.169 216.112 170.121 216.112C170.331 216.112 170.485 216.126 170.709 216.182ZM174.513 223.168C172.567 223.168 171.279 221.768 171.279 219.654C171.279 217.554 172.553 216.112 174.429 216.112C176.179 216.112 177.383 217.372 177.383 219.206V219.654H171.923C171.979 221.488 172.931 222.58 174.513 222.58C175.703 222.58 176.459 222.062 176.725 221.068H177.383C176.991 222.454 176.025 223.168 174.513 223.168ZM174.429 216.7C173.057 216.7 172.091 217.652 171.937 219.122H176.725C176.725 217.666 175.815 216.7 174.429 216.7ZM188.021 218.492H183.793V223H183.121V213.06H188.833V213.676H183.793V217.876H188.021V218.492ZM189.353 219.64C189.353 217.61 190.767 216.112 192.685 216.112C194.603 216.112 196.017 217.61 196.017 219.64C196.017 221.67 194.603 223.168 192.685 223.168C190.767 223.168 189.353 221.67 189.353 219.64ZM190.011 219.64C190.011 221.362 191.117 222.58 192.685 222.58C194.253 222.58 195.359 221.362 195.359 219.64C195.359 217.918 194.253 216.7 192.685 216.7C191.117 216.7 190.011 217.918 190.011 219.64ZM200.842 216.182V216.742H200.338C199.092 216.742 198.28 217.652 198.28 218.912V223H197.636V216.28H198.238L198.294 217.358C198.56 216.602 199.302 216.112 200.254 216.112C200.464 216.112 200.618 216.126 200.842 216.182ZM205.931 223H205.259L208.941 213.06H209.935L213.659 223H212.973L211.923 220.214H206.967L205.931 223ZM209.347 213.774L207.191 219.598H211.699L209.515 213.774C209.487 213.69 209.445 213.592 209.431 213.522C209.417 213.578 209.375 213.704 209.347 213.774ZM217.931 213.676V213.06H224.847V213.676H221.725V223H221.053V213.676H217.931ZM228.418 216.182V216.742H227.914C226.668 216.742 225.856 217.652 225.856 218.912V223H225.212V216.28H225.814L225.87 217.358C226.136 216.602 226.878 216.112 227.83 216.112C228.04 216.112 228.194 216.126 228.418 216.182ZM234.553 216.28H235.197V223H234.679L234.553 221.754C234.189 222.594 233.237 223.168 232.117 223.168C230.507 223.168 229.681 222.062 229.681 220.424V216.266H230.339V220.256C230.339 221.978 231.151 222.58 232.271 222.58C233.685 222.58 234.553 221.6 234.553 219.864V216.28ZM239.919 223.168C237.973 223.168 236.685 221.768 236.685 219.654C236.685 217.554 237.959 216.112 239.835 216.112C241.585 216.112 242.789 217.372 242.789 219.206V219.654H237.329C237.385 221.488 238.337 222.58 239.919 222.58C241.109 222.58 241.865 222.062 242.131 221.068H242.789C242.397 222.454 241.431 223.168 239.919 223.168ZM239.835 216.7C238.463 216.7 237.497 217.652 237.343 219.122H242.131C242.131 217.666 241.221 216.7 239.835 216.7ZM249.2 223H248.528V213.06H249.2L253.008 222.188L256.802 213.06H257.488V223H256.816V217.554C256.816 215.93 256.844 215.09 256.886 214.432L253.344 223H252.672L249.13 214.474C249.158 214.754 249.2 215.916 249.2 217.554V223ZM264.604 216.28H265.248V223H264.73L264.604 221.754C264.24 222.594 263.288 223.168 262.168 223.168C260.558 223.168 259.732 222.062 259.732 220.424V216.266H260.39V220.256C260.39 221.978 261.202 222.58 262.322 222.58C263.736 222.58 264.604 221.6 264.604 219.864V216.28ZM268.077 223H267.433V212.892H268.077V223ZM271.479 223H270.835V216.84H269.477V216.28H270.835V214.152H271.479V216.28H272.837V216.84H271.479V223ZM274.507 214.222C274.185 214.222 273.919 213.956 273.919 213.648C273.919 213.326 274.185 213.046 274.507 213.046C274.815 213.046 275.095 213.326 275.095 213.648C275.095 213.956 274.815 214.222 274.507 214.222ZM274.185 223V216.28H274.829V223H274.185ZM276.806 219.64V219.052H280.67V219.64H276.806ZM286.554 219.262H283.516V223H282.844V213.06H286.554C288.444 213.06 289.606 214.292 289.606 216.14C289.606 217.89 288.43 219.262 286.554 219.262ZM286.526 213.676H283.516V218.646H286.442C287.996 218.646 288.92 217.596 288.92 216.112C288.92 214.614 287.982 213.676 286.526 213.676ZM294.29 216.182V216.742H293.786C292.54 216.742 291.728 217.652 291.728 218.912V223H291.084V216.28H291.686L291.742 217.358C292.008 216.602 292.75 216.112 293.702 216.112C293.912 216.112 294.066 216.126 294.29 216.182ZM294.859 219.64C294.859 217.61 296.273 216.112 298.191 216.112C300.109 216.112 301.523 217.61 301.523 219.64C301.523 221.67 300.109 223.168 298.191 223.168C296.273 223.168 294.859 221.67 294.859 219.64ZM295.517 219.64C295.517 221.362 296.623 222.58 298.191 222.58C299.759 222.58 300.865 221.362 300.865 219.64C300.865 217.918 299.759 216.7 298.191 216.7C296.623 216.7 295.517 217.918 295.517 219.64ZM305.732 223.168C303.758 223.168 302.638 221.628 302.638 219.64C302.638 217.652 303.758 216.112 305.732 216.112C306.922 216.112 307.846 216.644 308.336 217.736V212.892H308.98V223H308.462L308.364 221.488C307.86 222.636 306.894 223.168 305.732 223.168ZM305.802 222.58C307.412 222.58 308.322 221.348 308.322 219.64C308.322 217.946 307.412 216.7 305.802 216.7C304.206 216.7 303.296 217.946 303.296 219.64C303.296 221.348 304.206 222.58 305.802 222.58ZM315.901 216.28H316.545V223H316.027L315.901 221.754C315.537 222.594 314.585 223.168 313.465 223.168C311.855 223.168 311.029 222.062 311.029 220.424V216.266H311.687V220.256C311.687 221.978 312.499 222.58 313.619 222.58C315.033 222.58 315.901 221.6 315.901 219.864V216.28ZM318.033 219.668C318.033 217.54 319.293 216.112 321.225 216.112C322.667 216.112 323.745 216.966 324.053 218.24H323.395C323.115 217.246 322.219 216.686 321.225 216.686C319.727 216.686 318.663 217.834 318.663 219.654C318.663 221.39 319.643 222.58 321.141 222.58C322.219 222.58 323.115 221.964 323.423 221.054H324.081C323.717 222.328 322.569 223.168 321.141 223.168C319.293 223.168 318.033 221.768 318.033 219.668ZM326.85 223H326.206V216.84H324.848V216.28H326.206V214.152H326.85V216.28H328.208V216.84H326.85V223ZM333.06 215.566C333.06 213.942 334.334 212.892 336.294 212.892C338.002 212.892 339.136 213.844 339.332 215.44H338.632C338.492 214.208 337.652 213.508 336.294 213.508C334.754 213.508 333.732 214.32 333.732 215.566C333.732 216.518 334.306 217.148 335.44 217.442L337.204 217.89C338.702 218.268 339.5 219.164 339.5 220.438C339.5 222.104 338.212 223.168 336.224 223.168C334.362 223.168 333.102 222.202 332.948 220.648H333.662C333.718 221.782 334.74 222.538 336.224 222.538C337.806 222.538 338.828 221.726 338.828 220.452C338.828 219.472 338.254 218.814 337.078 218.52L335.356 218.086C333.858 217.708 333.06 216.854 333.06 215.566ZM342.409 223H341.765V216.84H340.407V216.28H341.765V214.152H342.409V216.28H343.767V216.84H342.409V223ZM349.903 216.28H350.547V223H350.029L349.903 221.754C349.539 222.594 348.587 223.168 347.467 223.168C345.857 223.168 345.031 222.062 345.031 220.424V216.266H345.689V220.256C345.689 221.978 346.501 222.58 347.621 222.58C349.035 222.58 349.903 221.6 349.903 219.864V216.28ZM355.129 223.168C353.155 223.168 352.035 221.628 352.035 219.64C352.035 217.652 353.155 216.112 355.129 216.112C356.319 216.112 357.243 216.644 357.733 217.736V212.892H358.377V223H357.859L357.761 221.488C357.257 222.636 356.291 223.168 355.129 223.168ZM355.199 222.58C356.809 222.58 357.719 221.348 357.719 219.64C357.719 217.946 356.809 216.7 355.199 216.7C353.603 216.7 352.693 217.946 352.693 219.64C352.693 221.348 353.603 222.58 355.199 222.58ZM360.831 214.222C360.509 214.222 360.243 213.956 360.243 213.648C360.243 213.326 360.509 213.046 360.831 213.046C361.139 213.046 361.419 213.326 361.419 213.648C361.419 213.956 361.139 214.222 360.831 214.222ZM360.509 223V216.28H361.153V223H360.509ZM362.781 219.64C362.781 217.61 364.195 216.112 366.113 216.112C368.031 216.112 369.445 217.61 369.445 219.64C369.445 221.67 368.031 223.168 366.113 223.168C364.195 223.168 362.781 221.67 362.781 219.64ZM363.439 219.64C363.439 221.362 364.545 222.58 366.113 222.58C367.681 222.58 368.787 221.362 368.787 219.64C368.787 217.918 367.681 216.7 366.113 216.7C364.545 216.7 363.439 217.918 363.439 219.64Z" fill="black"/>
				<g clip-path="url(#clip1_7576_1225)">
				<path d="M94.4972 253.345L93.2297 251.312C97.8438 239.864 96.7293 225.593 89.062 213.335C81.3954 201.074 69.0529 193.823 56.7407 192.955L55.4694 190.921C54.0977 188.727 51.1956 188.058 49.0018 189.43L41.9064 193.866C39.7127 195.238 39.0435 198.14 40.4152 200.334L40.7485 200.867L11.3006 219.28C8.80965 220.837 7.8315 223.906 8.79836 226.56L-69.5722 286.156C-71.4489 287.642 -72.2317 290.021 -71.7509 292.243L-97.3774 308.267C-98.0238 308.671 -98.2191 309.518 -97.815 310.164C-97.4109 310.811 -96.5636 311.006 -95.9173 310.602L-70.5974 294.77L-53.9428 321.406L-84.5324 340.533L-102.792 311.33C-103.255 310.59 -103.979 310.071 -104.83 309.875C-105.681 309.679 -106.559 309.828 -107.3 310.291L-113.796 314.353C-114.537 314.816 -115.055 315.54 -115.252 316.391C-115.448 317.242 -115.299 318.121 -114.836 318.861L-95.093 350.437C-94.6151 351.201 -93.8701 351.7 -93.0535 351.888C-92.2369 352.076 -91.3487 351.954 -90.5845 351.476L-84.0882 347.414C-83.3475 346.951 -82.8292 346.227 -82.633 345.376C-82.4368 344.525 -82.5855 343.647 -83.0487 342.906L-83.0723 342.868L-52.1005 323.503C-51.4322 323.984 -50.6834 324.326 -49.8899 324.509C-48.5787 324.811 -47.1639 324.681 -45.8659 324.06C-45.8573 324.058 -45.8479 324.052 -45.8432 324.049L42.021 279.699C42.8354 280.545 43.877 281.141 45.0463 281.41C46.6373 281.777 48.2795 281.502 49.6618 280.637L72.7833 266.18C73.4296 265.776 73.625 264.929 73.2208 264.283C72.8167 263.636 71.9695 263.441 71.3231 263.845L48.1978 278.301C47.4383 278.776 46.5354 278.927 45.6613 278.726C44.7872 278.524 44.0416 277.993 43.5667 277.233L11.6873 226.253C10.7051 224.682 11.1842 222.604 12.7552 221.622L42.203 203.209L79.4383 262.761C80.1256 263.86 81.1924 264.574 82.3655 264.845C83.5386 265.115 84.8105 264.94 85.9097 264.253L93.006 259.812C94.0675 259.149 94.8119 258.109 95.0939 256.886C95.375 255.667 95.1648 254.407 94.4972 253.345ZM-85.5492 345.083L-92.0455 349.145C-92.2861 349.295 -92.6081 349.221 -92.7586 348.98L-112.502 317.405C-112.602 317.244 -112.587 317.091 -112.569 317.014C-112.551 316.937 -112.497 316.788 -112.337 316.692L-105.841 312.63C-105.68 312.53 -105.527 312.545 -105.45 312.563C-105.373 312.58 -105.224 312.635 -105.128 312.794L-85.3848 344.37C-85.2845 344.53 -85.2998 344.684 -85.3175 344.761C-85.3352 344.838 -85.3927 344.982 -85.5492 345.083ZM10.1553 228.992L40.432 277.415L-47.0757 321.585C-48.6178 322.319 -50.461 321.785 -51.3666 320.337L-68.6258 292.734C-69.5344 291.281 -69.2056 289.382 -67.8812 288.331L10.1553 228.992ZM91.5497 257.478L84.4543 261.915C83.5485 262.481 82.3485 262.204 81.7821 261.298L43.8106 200.58L42.7487 198.882C42.1823 197.976 42.459 196.776 43.3648 196.209L50.4602 191.773C50.9131 191.49 51.4386 191.417 51.9255 191.529C52.4124 191.642 52.853 191.937 53.1362 192.39L92.1679 254.815C92.4422 255.253 92.5281 255.774 92.4114 256.28C92.2936 256.773 91.9884 257.204 91.5497 257.478Z" fill="black" fill-opacity="0.06"/>
				<path d="M-3.34591 248.324C-2.96253 248.413 -2.54115 248.336 -2.20325 248.079L4.95391 242.639C5.561 242.178 5.67497 241.316 5.21718 240.71C4.75556 240.103 3.89358 239.989 3.28737 240.446L-3.8698 245.886C-4.47689 246.348 -4.59085 247.21 -4.13307 247.816C-3.92777 248.081 -3.64877 248.255 -3.34591 248.324Z" fill="black" fill-opacity="0.06"/>
				</g>
				<path d="M88.3257 204.128L212.495 59.9006L285.698 177.424L100.3 223.152L88.3257 204.128Z" fill="url(#paint0_linear_7576_1225)"/>
				<path d="M-340.859 172.399L-48.9248 -127.564L95.0409 143.083L-321.39 216.119L-340.859 172.399Z" fill="url(#paint1_linear_7576_1225)"/>
				</g>
				<defs>
				<linearGradient id="paint0_linear_7576_1225" x1="92.0809" y1="210.543" x2="252.66" y2="123.705" gradientUnits="userSpaceOnUse">
				<stop stop-opacity="0"/>
				<stop offset="0.5" stop-opacity="0.15"/>
				<stop offset="1" stop-opacity="0"/>
				</linearGradient>
				<linearGradient id="paint1_linear_7576_1225" x1="-337.643" y1="187.026" x2="30.1696" y2="19.4376" gradientUnits="userSpaceOnUse">
				<stop stop-opacity="0"/>
				<stop offset="0.5" stop-opacity="0.15"/>
				<stop offset="1" stop-opacity="0"/>
				</linearGradient>
				<clipPath id="clip0_7576_1225">
				<rect y="0.281494" width="390" height="256" rx="16" fill="white"/>
				</clipPath>
				<clipPath id="clip1_7576_1225">
				<rect width="201.438" height="201.438" fill="white" transform="translate(-82.5461 152.642) rotate(12.9839)"/>
				</clipPath>
				</defs>
				</svg>	